<svg width="915" height="808" viewBox="0 0 915 808" fill="none" xmlns="http://www.w3.org/2000/svg">
    <style>
        @keyframes flashLight {
            from {
              opacity: 0.5;
            }
            
            to {
              opacity: 0.8;
            }
          }
          @-webkit-keyframes flashLight {
            0% {
              opacity: 0.5;
            }
            100% {
              opacity: 0.8;
            }
          }
        
        @keyframes float-up {
          100% {
            transform: translateY(-10px);
          }
        }
        @keyframes float-down {
          100% {
            transform: translateY(10px);
          }
        }
        @keyframes float-sm {
          100% {
            transform: translateY(-5px);
          }
        }
        @keyframes float-mx {
          100% {
            transform: translateY(8px);
          }
        }
        
        
        #dm  {
            animation: float-up 2.15s infinite ease-in-out alternate;
        }
        #tls{
            animation: float-sm 2.10s infinite ease-in-out alternate;
        }
        #evr{
            animation: float-mx  2.08s infinite ease-in-out alternate;
        }


        #cwmm{
            animation: float-up 2.1s infinite ease-in-out alternate;
        }
        #ssgs{
            animation: float-down 1.80s infinite ease-in-out alternate;
        }
        #sn{
            animation: float-mx 1.5s infinite ease-in-out alternate;
        }
        #scf{
            animation: float-up 1.8s infinite ease-in-out alternate;
        }
        
        #flashLigt{
            animation: flashLight 0.5s ease-in-out infinite alternate;
            -webkit-animation: flashLight 0.5s ease-in-out infinite alternate;
            -ms-animation: flashLight 0.5s ease-in-out infinite alternate;
            -webkit-transform-origin: bottom;
            -ms-transform-origin: bottom;
            transform-origin: bottom;

        }
        
        </style>

    <g id="banner-img2 1" clip-path="url(#clip0_1_2)">
        <path id="Vector_156" opacity="0.95" d="M689.13 577.978C690.847 543.319 668.824 508.299 622.988 481.834C535.027 431.052 392.893 431.052 305.498 481.834C261.975 507.158 240.209 540.327 240.26 573.475C240.26 573.372 240.26 573.269 240.26 573.156V587.047C240.168 620.545 262.273 654.084 306.526 679.634C309.179 681.169 311.876 682.65 314.618 684.076C315.533 684.559 316.468 685.001 317.394 685.474C319.244 686.41 321.095 687.345 322.987 688.25C324.108 688.785 325.259 689.278 326.39 689.803C328.128 690.594 329.855 691.386 331.624 692.137C332.847 692.671 334.091 693.165 335.335 693.679C336.579 694.193 337.721 694.707 338.924 695.17C339.541 695.416 340.178 695.643 340.795 695.879L343.129 696.774C345.442 697.637 347.766 698.48 350.121 699.293L351.735 699.858C354.573 700.825 357.431 701.74 360.31 702.624C361.029 702.85 361.759 703.056 362.479 703.272C363.713 703.642 364.947 704.022 366.191 704.382C366.88 704.567 367.579 704.732 368.247 704.927C370.509 705.558 372.781 706.158 375.064 706.726C376.452 707.076 377.83 707.436 379.177 707.755C381.685 708.351 384.215 708.916 386.744 709.461C387.69 709.667 388.615 709.904 389.561 710.099L390.332 710.243C392.636 710.716 394.959 711.137 397.283 711.569C398.537 711.795 399.781 712.052 401.046 712.268C404.131 712.793 407.215 713.297 410.238 713.718C410.773 713.8 411.266 713.893 411.821 713.965H411.904C415.461 714.499 419.039 714.931 422.627 715.332C423.481 715.425 424.344 715.487 425.198 715.579C427.933 715.867 430.678 716.145 433.423 716.381H433.639C434.894 716.484 436.148 716.546 437.413 716.638C439.705 716.803 441.998 716.977 444.301 717.101C445.792 717.183 447.293 717.224 448.784 717.286C450.933 717.378 453.072 717.481 455.221 717.543H455.745C456.948 717.543 458.161 717.543 459.364 717.543C461.698 717.543 464.042 717.625 466.376 717.615C467.908 717.615 469.461 717.615 470.972 717.553C473.162 717.553 475.342 717.491 477.532 717.43C477.933 717.43 478.334 717.43 478.745 717.43C479.773 717.43 480.802 717.327 481.83 717.275C484.349 717.173 486.868 717.06 489.387 716.895C490.902 716.806 492.413 716.703 493.921 716.587C496.341 716.415 498.74 716.213 501.118 715.98C501.961 715.908 502.804 715.857 503.648 715.774L505.396 715.569C509.138 715.178 512.863 714.733 516.572 714.232L518.402 714.006C522.659 713.41 526.884 712.721 531.1 711.95L532.282 711.754C533.403 711.549 534.503 711.312 535.624 711.096C537.584 710.726 539.541 710.342 541.495 709.945C543.092 709.602 544.675 709.259 546.245 708.916C548.168 708.495 550.07 708.063 551.972 707.6C553.555 707.22 555.128 706.819 556.691 706.408C558.562 705.924 560.434 705.38 562.284 704.917C563.847 704.485 565.369 704.043 566.932 703.59C568.762 703.049 570.585 702.494 572.402 701.925C573.193 701.668 573.995 701.452 574.787 701.195C575.908 700.835 577.008 700.444 578.118 700.074L580.175 699.385C582.971 698.419 585.747 697.421 588.482 696.373L589.994 695.776C592.311 694.878 594.6 693.953 596.862 693C597.551 692.712 598.25 692.425 598.918 692.126C601.581 690.975 604.224 689.803 606.815 688.579L607.73 688.127C610.043 687.016 612.336 685.875 614.588 684.703L616.582 683.675C619.101 682.338 621.59 680.981 624.016 679.562C624.941 679.027 625.857 678.534 626.761 677.948C627.666 677.362 628.386 676.92 629.219 676.385C630.596 675.532 631.964 674.678 633.331 673.804C634.699 672.93 635.727 672.19 636.909 671.378C638.092 670.566 639.469 669.609 640.703 668.715C641.937 667.82 642.945 667.049 644.045 666.206C645.145 665.363 646.41 664.386 647.551 663.461C648.692 662.535 649.607 661.744 650.635 660.88C651.664 660.016 652.815 659.009 653.864 658.063C654.296 657.672 654.779 657.292 655.201 656.891C656.064 656.099 656.887 655.287 657.72 654.475C658.018 654.187 658.326 653.909 658.614 653.621C660.249 652.007 661.801 650.382 663.303 648.737C663.662 648.357 664.002 647.966 664.331 647.576C665.599 646.157 666.816 644.727 667.981 643.288L668.752 642.352L669.101 641.921C670.294 640.409 671.415 638.836 672.505 637.335L673.173 636.379C674.345 634.693 675.452 632.979 676.494 631.238C676.669 630.96 676.823 630.683 676.988 630.405C677.378 629.768 677.769 629.12 678.139 628.472C678.766 627.351 679.373 626.22 679.949 625.089L680.134 624.719C681.1 622.827 681.988 620.922 682.797 619.003V618.951C683.249 617.872 683.681 616.792 684.082 615.702C684.257 615.25 684.38 614.787 684.545 614.324C684.925 613.245 685.285 612.165 685.573 611.086C685.861 610.006 686.179 609.111 686.447 608.114C686.714 607.117 686.992 605.934 687.238 604.845C687.372 604.248 687.557 603.662 687.67 603.066C687.753 602.675 687.783 602.274 687.855 601.873C688.071 600.752 688.236 599.632 688.39 598.511C688.544 597.39 688.657 596.547 688.76 595.56C688.863 594.573 688.935 593.298 689.007 592.167C689.007 591.509 689.12 590.851 689.141 590.193C689.161 589.535 689.141 588.877 689.141 588.219V574.328C689.274 575.624 689.192 576.806 689.13 577.978Z" fill="#1440B3" />
        <path id="Vector_157" d="M687.992 577.413C689.709 542.754 667.685 507.734 621.849 481.269C533.889 430.487 391.754 430.487 304.359 481.269C260.795 506.582 239.07 539.741 239.121 572.91C239.121 572.807 239.121 572.694 239.121 572.591V586.482C239.029 619.97 261.135 653.519 305.387 679.069C308.04 680.601 310.744 682.071 313.479 683.511C314.394 683.994 315.33 684.436 316.255 684.909C318.106 685.845 319.956 686.78 321.848 687.675C322.969 688.21 324.121 688.703 325.252 689.238C326.989 690.019 328.717 690.811 330.485 691.572C331.709 692.096 332.953 692.6 334.197 693.114C335.441 693.628 336.582 694.142 337.785 694.605L339.656 695.314L341.99 696.198C344.307 697.069 346.638 697.912 348.982 698.728L350.596 699.293C353.434 700.26 356.292 701.175 359.171 702.059L361.341 702.707C362.574 703.077 363.808 703.457 365.052 703.807C365.741 704.002 366.44 704.167 367.109 704.362C369.371 704.979 371.643 705.579 373.925 706.161C375.313 706.511 376.691 706.871 378.038 707.19C380.547 707.796 383.076 708.352 385.605 708.907C386.551 709.112 387.477 709.349 388.423 709.544L389.194 709.688C391.497 710.161 393.821 710.583 396.144 711.014C397.399 711.241 398.643 711.498 399.907 711.714C402.992 712.238 406.076 712.742 409.099 713.163C409.634 713.235 410.127 713.338 410.683 713.41H410.765C414.322 713.917 417.897 714.37 421.489 714.767C422.342 714.87 423.206 714.932 424.059 715.024C426.794 715.312 429.539 715.59 432.285 715.816H432.5C433.755 715.919 435.009 715.981 436.274 716.073C438.567 716.248 440.86 716.423 443.163 716.546C444.653 716.628 446.155 716.669 447.646 716.731C449.794 716.824 451.933 716.926 454.082 716.978H454.606C455.819 716.978 457.022 716.978 458.225 716.978C460.559 716.978 462.904 717.05 465.238 717.05C466.77 717.05 468.322 717.05 469.833 716.988C472.023 716.988 474.203 716.926 476.393 716.854H477.606C478.635 716.854 479.663 716.741 480.691 716.7C483.207 716.597 485.726 716.471 488.248 716.32L492.782 716.011C495.199 715.826 497.604 715.631 499.98 715.405C500.823 715.333 501.666 715.281 502.509 715.199C503.095 715.137 503.671 715.045 504.257 714.983C507.999 714.592 511.728 714.15 515.443 713.657C516.04 713.575 516.657 713.513 517.263 713.42C521.52 712.824 525.753 712.139 529.961 711.364C530.352 711.302 530.753 711.251 531.144 711.179C532.264 710.973 533.364 710.737 534.485 710.521C536.449 710.151 538.402 709.77 540.356 709.359C541.95 709.03 543.533 708.681 545.116 708.331C547.029 707.906 548.934 707.467 550.833 707.015L555.552 705.822C557.424 705.339 559.295 704.845 561.146 704.331C562.709 703.899 564.23 703.447 565.793 702.995C567.623 702.46 569.453 701.905 571.263 701.329L573.648 700.609C574.769 700.239 575.869 699.859 576.98 699.478L579.036 698.8C581.833 697.833 584.609 696.826 587.344 695.787L588.855 695.191C591.168 694.296 593.461 693.361 595.723 692.404C596.422 692.117 597.111 691.829 597.78 691.531C600.443 690.389 603.085 689.207 605.676 687.983L606.591 687.541C608.905 686.431 611.197 685.289 613.449 684.117C614.117 683.768 614.786 683.428 615.444 683.089C617.963 681.763 620.451 680.395 622.877 678.976C623.803 678.442 624.718 677.897 625.623 677.352C626.527 676.807 627.247 676.324 628.08 675.799C629.458 674.946 630.825 674.082 632.193 673.219C633.56 672.355 634.588 671.605 635.771 670.792C636.953 669.98 638.331 669.024 639.565 668.129C640.798 667.235 641.806 666.464 642.906 665.62C644.006 664.777 645.271 663.801 646.412 662.875C647.554 661.95 648.469 661.158 649.497 660.295C650.525 659.431 651.677 658.413 652.725 657.467C653.157 657.076 653.64 656.696 654.062 656.305C654.926 655.503 655.748 654.701 656.581 653.889C656.879 653.601 657.188 653.324 657.475 653.036C659.11 651.421 660.663 649.797 662.164 648.152L663.192 646.99C664.46 645.571 665.677 644.142 666.842 642.702L667.613 641.767L667.963 641.335C669.155 639.813 670.276 638.251 671.366 636.749L672.034 635.793C673.206 634.107 674.314 632.393 675.355 630.652C675.53 630.375 675.684 630.097 675.849 629.819C676.24 629.172 676.63 628.534 677 627.876C677.628 626.755 678.234 625.635 678.81 624.504C678.882 624.38 678.933 624.257 678.995 624.134C679.962 622.242 680.856 620.329 681.658 618.417V618.366C682.111 617.337 682.542 616.206 682.943 615.117C683.118 614.664 683.241 614.201 683.406 613.739C683.786 612.711 684.146 611.58 684.434 610.49C684.722 609.4 685.041 608.516 685.308 607.529C685.575 606.542 685.853 605.349 686.1 604.249C686.233 603.663 686.419 603.077 686.532 602.48C686.614 602.079 686.645 601.678 686.717 601.288C686.933 600.167 687.097 599.046 687.251 597.915C687.385 596.938 687.519 595.951 687.621 594.975C687.724 593.998 687.807 592.713 687.868 591.582C687.868 590.924 687.981 590.266 688.002 589.597C688.022 588.929 688.002 588.281 688.002 587.633V573.743C688.136 575.059 688.053 576.231 687.992 577.413Z" fill="#1440B3" />
        <path id="Vector_158" d="M687.992 577.413C689.709 542.754 667.685 507.734 621.849 481.269C533.889 430.487 391.754 430.487 304.359 481.269C260.795 506.582 239.07 539.741 239.121 572.91C239.121 572.807 239.121 572.694 239.121 572.591V586.482C239.029 619.97 261.135 653.519 305.387 679.069C308.04 680.601 310.744 682.071 313.479 683.511C314.394 683.994 315.33 684.436 316.255 684.909C318.106 685.845 319.956 686.78 321.848 687.675C322.969 688.21 324.121 688.703 325.252 689.238C326.989 690.019 328.717 690.811 330.485 691.572C331.709 692.096 332.953 692.6 334.197 693.114C335.441 693.628 336.582 694.142 337.785 694.605L339.656 695.314L341.99 696.198C344.307 697.069 346.638 697.912 348.982 698.728L350.596 699.293C353.434 700.26 356.292 701.175 359.171 702.059L361.341 702.707C362.574 703.077 363.808 703.457 365.052 703.807C365.741 704.002 366.44 704.167 367.109 704.362C369.371 704.979 371.643 705.579 373.925 706.161C375.313 706.511 376.691 706.871 378.038 707.19C380.547 707.796 383.076 708.352 385.605 708.907C386.551 709.112 387.477 709.349 388.423 709.544L389.194 709.688C391.497 710.161 393.821 710.583 396.144 711.014C397.399 711.241 398.643 711.498 399.907 711.714C402.992 712.238 406.076 712.742 409.099 713.163C409.634 713.235 410.127 713.338 410.683 713.41H410.765C414.322 713.917 417.897 714.37 421.489 714.767C422.342 714.87 423.206 714.932 424.059 715.024C426.794 715.312 429.539 715.59 432.285 715.816H432.5C433.755 715.919 435.009 715.981 436.274 716.073C438.567 716.248 440.86 716.423 443.163 716.546C444.653 716.628 446.155 716.669 447.646 716.731C449.794 716.824 451.933 716.926 454.082 716.978H454.606C455.819 716.978 457.022 716.978 458.225 716.978C460.559 716.978 462.904 717.05 465.238 717.05C466.77 717.05 468.322 717.05 469.833 716.988C472.023 716.988 474.203 716.926 476.393 716.854H477.606C478.635 716.854 479.663 716.741 480.691 716.7C483.207 716.597 485.726 716.471 488.248 716.32L492.782 716.011C495.199 715.826 497.604 715.631 499.98 715.405C500.823 715.333 501.666 715.281 502.509 715.199C503.095 715.137 503.671 715.045 504.257 714.983C507.999 714.592 511.728 714.15 515.443 713.657C516.04 713.575 516.657 713.513 517.263 713.42C521.52 712.824 525.753 712.139 529.961 711.364C530.352 711.302 530.753 711.251 531.144 711.179C532.264 710.973 533.364 710.737 534.485 710.521C536.449 710.151 538.402 709.77 540.356 709.359C541.95 709.03 543.533 708.681 545.116 708.331C547.029 707.906 548.934 707.467 550.833 707.015L555.552 705.822C557.424 705.339 559.295 704.845 561.146 704.331C562.709 703.899 564.23 703.447 565.793 702.995C567.623 702.46 569.453 701.905 571.263 701.329L573.648 700.609C574.769 700.239 575.869 699.859 576.98 699.478L579.036 698.8C581.833 697.833 584.609 696.826 587.344 695.787L588.855 695.191C591.168 694.296 593.461 693.361 595.723 692.404C596.422 692.117 597.111 691.829 597.78 691.531C600.443 690.389 603.085 689.207 605.676 687.983L606.591 687.541C608.905 686.431 611.197 685.289 613.449 684.117C614.117 683.768 614.786 683.428 615.444 683.089C617.963 681.763 620.451 680.395 622.877 678.976C623.803 678.442 624.718 677.897 625.623 677.352C626.527 676.807 627.247 676.324 628.08 675.799C629.458 674.946 630.825 674.082 632.193 673.219C633.56 672.355 634.588 671.605 635.771 670.792C636.953 669.98 638.331 669.024 639.565 668.129C640.798 667.235 641.806 666.464 642.906 665.62C644.006 664.777 645.271 663.801 646.412 662.875C647.554 661.95 648.469 661.158 649.497 660.295C650.525 659.431 651.677 658.413 652.725 657.467C653.157 657.076 653.64 656.696 654.062 656.305C654.926 655.503 655.748 654.701 656.581 653.889C656.879 653.601 657.188 653.324 657.475 653.036C659.11 651.421 660.663 649.797 662.164 648.152L663.192 646.99C664.46 645.571 665.677 644.142 666.842 642.702L667.613 641.767L667.963 641.335C669.155 639.813 670.276 638.251 671.366 636.749L672.034 635.793C673.206 634.107 674.314 632.393 675.355 630.652C675.53 630.375 675.684 630.097 675.849 629.819C676.24 629.172 676.63 628.534 677 627.876C677.628 626.755 678.234 625.635 678.81 624.504C678.882 624.38 678.933 624.257 678.995 624.134C679.962 622.242 680.856 620.329 681.658 618.417V618.366C682.111 617.337 682.542 616.206 682.943 615.117C683.118 614.664 683.241 614.201 683.406 613.739C683.786 612.711 684.146 611.58 684.434 610.49C684.722 609.4 685.041 608.516 685.308 607.529C685.575 606.542 685.853 605.349 686.1 604.249C686.233 603.663 686.419 603.077 686.532 602.48C686.614 602.079 686.645 601.678 686.717 601.288C686.933 600.167 687.097 599.046 687.251 597.915C687.385 596.938 687.519 595.951 687.621 594.975C687.724 593.998 687.807 592.713 687.868 591.582C687.868 590.924 687.981 590.266 688.002 589.597C688.022 588.929 688.002 588.281 688.002 587.633V573.743C688.136 575.059 688.053 576.231 687.992 577.413Z" fill="#1440B3" />
        <path id="Vector_159" d="M687.959 576.652C687.897 577.783 687.835 578.914 687.722 580.045C687.609 581.176 687.485 582.009 687.352 582.985C687.218 583.962 687.023 585.237 686.817 586.358C686.612 587.479 686.426 588.332 686.2 589.329C685.974 590.327 685.696 591.509 685.409 592.599C685.121 593.689 684.843 594.573 684.535 595.57C684.226 596.568 683.846 597.73 683.506 598.809C682.951 600.351 682.396 601.894 681.748 603.436V603.487C680.936 605.4 680.042 607.312 679.085 609.204L678.9 609.574C677.985 611.353 676.988 613.132 675.939 614.89C675.775 615.167 675.62 615.445 675.446 615.723C674.411 617.443 673.304 619.157 672.125 620.863L671.456 621.82C670.264 623.506 669.019 625.182 667.703 626.837L666.932 627.773C665.76 629.212 664.544 630.638 663.282 632.05C662.933 632.451 662.593 632.842 662.254 633.232C660.753 634.867 659.17 636.492 657.566 638.106C657.278 638.394 656.969 638.682 656.671 638.959C655.427 640.173 654.132 641.355 652.815 642.537C651.787 643.494 650.677 644.429 649.587 645.365C648.497 646.3 647.531 647.092 646.502 647.946C645.474 648.799 644.179 649.786 642.996 650.691C641.814 651.596 640.786 652.367 639.655 653.2C638.524 654.032 637.146 654.978 635.861 655.863C634.576 656.747 633.496 657.487 632.273 658.289C631.049 659.091 629.579 660.016 628.16 660.87C626.443 661.898 624.746 663.008 622.957 664.047C620.531 665.466 618.043 666.823 615.524 668.16L613.529 669.188C611.277 670.36 608.984 671.501 606.671 672.611L605.756 673.054C603.165 674.287 600.523 675.46 597.86 676.611L595.803 677.485C593.541 678.438 591.248 679.363 588.925 680.261L587.424 680.857C584.689 681.886 581.912 682.914 579.116 683.87C578.448 684.106 577.769 684.322 577.059 684.549C575.168 685.186 573.259 685.806 571.333 686.41C569.523 686.975 567.713 687.53 565.883 688.065C564.331 688.517 562.799 688.97 561.215 689.402C559.365 689.916 557.504 690.413 555.632 690.892C554.07 691.293 552.548 691.705 550.913 692.085C549.011 692.548 547.098 692.98 545.186 693.401C543.603 693.761 542.03 694.111 540.436 694.429C538.482 694.827 536.522 695.211 534.555 695.581C533.054 695.869 531.552 696.157 530.031 696.424C525.822 697.178 521.589 697.863 517.333 698.48C516.737 698.573 516.12 698.635 515.513 698.717C511.812 699.224 508.086 699.67 504.337 700.053L500.06 700.465C497.654 700.691 495.248 700.886 492.862 701.071C491.351 701.174 489.839 701.287 488.318 701.38C485.809 701.537 483.293 701.664 480.771 701.76C479.352 701.822 477.933 701.894 476.504 701.945C474.324 702.007 472.145 702.038 469.955 702.069C468.423 702.069 466.87 702.13 465.359 702.13C463.025 702.13 460.68 702.13 458.346 702.058C456.969 702.058 455.581 702.058 454.234 702.058C452.085 701.997 449.946 701.894 447.797 701.801C446.307 701.74 444.805 701.699 443.315 701.616C441.011 701.493 438.708 701.318 436.415 701.143C435.089 701.051 433.763 700.979 432.436 700.876C429.681 700.64 426.936 700.362 424.211 700.074C423.358 699.981 422.504 699.92 421.651 699.817C418.066 699.413 414.491 698.96 410.927 698.46C410.372 698.388 409.817 698.285 409.261 698.203C406.177 697.75 403.092 697.277 400.07 696.753C398.805 696.537 397.561 696.28 396.306 696.054C393.983 695.622 391.649 695.2 389.346 694.728C388.143 694.481 386.96 694.203 385.768 693.946C383.225 693.398 380.702 692.829 378.2 692.239C376.802 691.9 375.424 691.54 374.088 691.211C371.805 690.635 369.536 690.036 367.281 689.412C365.348 688.867 363.415 688.322 361.492 687.757C360.773 687.541 360.053 687.335 359.344 687.109C356.454 686.225 353.596 685.309 350.758 684.343L349.144 683.777C346.79 682.965 344.466 682.122 342.152 681.248L339.819 680.364C337.978 679.654 336.169 678.914 334.359 678.164C333.115 677.65 331.871 677.135 330.647 676.621C328.879 675.871 327.141 675.069 325.403 674.277C324.272 673.763 323.131 673.249 322.011 672.735C320.119 671.83 318.268 670.894 316.407 669.959C315.492 669.486 314.556 669.044 313.641 668.56C310.899 667.135 308.202 665.654 305.549 664.119C261.287 638.569 239.181 605.03 239.284 571.583V585.474C239.191 618.961 261.297 652.511 305.549 678.009C308.202 679.541 310.906 681.012 313.641 682.451C314.556 682.934 315.492 683.376 316.417 683.849C318.268 684.785 320.119 685.721 322.011 686.615C323.131 687.15 324.283 687.643 325.414 688.178C327.151 688.959 328.879 689.751 330.647 690.512C331.871 691.036 333.115 691.54 334.359 692.054C335.603 692.568 336.744 693.082 337.947 693.545L339.819 694.255L342.152 695.139C344.469 696.009 346.8 696.852 349.144 697.668L350.758 698.234C353.596 699.2 356.454 700.115 359.333 700.999L361.503 701.647C362.737 702.017 363.97 702.398 365.214 702.747C365.903 702.943 366.602 703.107 367.271 703.303C369.533 703.919 371.805 704.526 374.088 705.102C375.476 705.451 376.853 705.811 378.2 706.13C380.709 706.737 383.238 707.292 385.768 707.847C386.714 708.053 387.639 708.289 388.585 708.484L389.356 708.628C391.659 709.101 393.983 709.523 396.306 709.955C397.561 710.181 398.805 710.438 400.07 710.654C403.154 711.178 406.239 711.682 409.261 712.104C409.796 712.176 410.29 712.278 410.845 712.35H410.927C414.485 712.858 418.059 713.31 421.651 713.708C422.504 713.81 423.368 713.872 424.221 713.965C426.956 714.253 429.702 714.53 432.447 714.756H432.663C433.917 714.859 435.171 714.921 436.436 715.013C438.729 715.188 441.022 715.363 443.325 715.486C444.816 715.569 446.317 715.61 447.808 715.671C449.957 715.764 452.095 715.867 454.244 715.918H454.768C455.982 715.918 457.185 715.918 458.388 715.918C460.722 715.918 463.066 715.99 465.4 715.99C466.932 715.99 468.484 715.99 469.996 715.928C472.186 715.928 474.365 715.867 476.555 715.795H477.769C478.797 715.795 479.825 715.682 480.853 715.641C483.369 715.538 485.888 715.411 488.41 715.26L492.945 714.952C495.361 714.767 497.767 714.571 500.142 714.345C500.985 714.273 501.828 714.222 502.671 714.139C503.257 714.078 503.833 713.985 504.419 713.924C508.162 713.533 511.894 713.101 515.606 712.597C516.202 712.515 516.819 712.453 517.425 712.361C521.682 711.764 525.915 711.079 530.123 710.304C530.514 710.243 530.915 710.191 531.306 710.119C532.426 709.914 533.527 709.677 534.647 709.461C536.611 709.091 538.565 708.711 540.518 708.299C542.112 707.97 543.695 707.621 545.279 707.271C547.191 706.853 549.097 706.414 550.995 705.955L555.715 704.762C557.586 704.279 559.457 703.786 561.308 703.272C562.871 702.84 564.392 702.387 565.955 701.935C567.785 701.4 569.616 700.845 571.425 700.269L573.811 699.55C574.931 699.18 576.031 698.799 577.142 698.419L579.198 697.74C581.995 696.774 584.771 695.766 587.506 694.728L589.017 694.131C591.331 693.237 593.623 692.301 595.885 691.355L597.942 690.471C600.605 689.33 603.247 688.147 605.838 686.924L606.753 686.482C609.067 685.371 611.359 684.23 613.611 683.058C614.279 682.708 614.948 682.369 615.606 682.03C618.125 680.703 620.613 679.336 623.04 677.917C623.965 677.382 624.88 676.889 625.785 676.292C626.689 675.696 627.409 675.264 628.242 674.74C629.62 673.886 630.987 673.023 632.355 672.159C633.722 671.295 634.75 670.545 635.933 669.733C637.115 668.92 638.493 667.964 639.727 667.07C640.961 666.175 641.968 665.404 643.068 664.561C644.169 663.718 645.433 662.741 646.574 661.816C647.716 660.89 648.631 660.099 649.659 659.235C650.687 658.371 651.839 657.364 652.887 656.407C653.319 656.017 653.802 655.636 654.224 655.246C655.088 654.444 655.91 653.642 656.743 652.829C657.041 652.541 657.35 652.264 657.638 651.976C659.272 650.362 660.825 648.737 662.326 647.092L663.354 645.93C664.622 644.511 665.839 643.082 667.004 641.643L667.775 640.707L668.125 640.275C669.318 638.754 670.438 637.191 671.528 635.69L672.197 634.734C673.369 633.047 674.476 631.334 675.518 629.593C675.692 629.315 675.846 629.037 676.011 628.76C676.402 628.112 676.793 627.475 677.163 626.817C677.79 625.696 678.396 624.575 678.972 623.444C679.044 623.321 679.096 623.197 679.157 623.074C680.124 621.182 681.018 619.27 681.82 617.357V617.306C682.273 616.226 682.704 615.147 683.105 614.057C683.28 613.605 683.404 613.142 683.568 612.679C683.949 611.6 684.308 610.52 684.596 609.43C684.884 608.34 685.203 607.456 685.47 606.469C685.738 605.482 686.015 604.289 686.262 603.189C686.396 602.603 686.581 602.017 686.694 601.421C686.776 601.02 686.807 600.619 686.879 600.228C687.095 599.107 687.259 597.987 687.414 596.856C687.547 595.879 687.681 594.892 687.784 593.915C687.887 592.938 687.969 591.653 688.03 590.522C688.03 589.864 688.144 589.206 688.164 588.538C688.185 587.869 688.164 587.232 688.164 586.574V572.683C688.133 574.02 688.03 575.336 687.959 576.652Z" fill="url(#paint0_linear_1_2)" />
        <path id="Vector_160" d="M621.836 480.096C709.817 530.888 710.259 613.224 622.865 664.006C535.47 714.787 393.325 714.798 305.344 664.006C217.363 613.214 216.921 530.888 304.315 480.096C391.71 429.304 533.886 429.284 621.836 480.096Z" fill="white" />
        <path id="Vector_161" d="M464.351 700.876C404.594 700.876 348.353 687.407 306.012 662.957C263.672 638.507 240.384 606.13 240.322 571.738C240.322 537.582 263.24 505.41 304.974 481.155C347.057 456.695 403.134 443.226 462.891 443.226C522.649 443.226 578.88 456.695 621.23 481.155C663.581 505.616 686.859 537.972 686.9 572.375C686.9 606.541 664.002 638.703 622.279 662.947C580.196 687.407 524.16 700.876 464.351 700.876Z" fill="url(#paint1_linear_1_2)" />
        <path id="Vector_162" d="M468.361 659.883C426.206 659.883 386.488 650.372 356.588 633.15C326.689 615.928 310.321 593.051 310.238 568.766C310.238 544.655 326.411 521.953 355.869 504.834C385.573 487.571 425.157 478.102 467.333 478.102C509.509 478.102 549.196 487.602 579.096 504.834C608.995 522.066 625.364 544.933 625.446 569.218C625.446 593.329 609.283 616.031 579.826 633.15C550.122 650.341 510.537 659.883 468.361 659.883Z" fill="url(#paint2_linear_1_2)" />
        <path id="Vector_163" d="M468.227 633.778C421.651 634.137 351.54 614.828 348.877 566.699C351.427 518.735 420.993 499.611 467.456 499.94C514.043 499.58 584.144 518.9 586.807 567.028C584.247 615.034 514.68 634.096 468.227 633.778Z" stroke="white" stroke-width="0.370143" stroke-miterlimit="10" stroke-dasharray="0.37 1.48" />
        <path id="Vector_164" d="M468.321 648.429C411.535 648.871 326.073 625.326 322.824 566.658C325.909 508.145 410.743 484.888 467.365 485.289C524.161 484.805 609.613 508.392 612.862 567.059C609.778 625.583 524.943 648.83 468.321 648.429Z" stroke="white" stroke-width="0.452397" stroke-miterlimit="10" stroke-dasharray="0.45 1.8" />
        <path id="Vector_165" d="M467.662 683.767C417.374 683.767 370.037 672.107 334.37 650.948C298.702 629.788 279.147 601.77 279.105 572.004C279.105 542.434 298.394 514.591 333.517 493.606C368.906 472.467 416.141 460.776 466.439 460.776C516.737 460.776 564.064 472.436 599.721 493.606C635.378 514.776 654.955 542.784 654.996 572.56C654.996 602.12 635.718 629.952 600.605 650.937C565.175 672.107 517.992 683.767 467.662 683.767Z" stroke="white" stroke-width="0.740286" stroke-miterlimit="10" />
        <path id="Vector_166" d="M468.135 617.645C443.839 617.645 420.973 612.175 403.74 602.222C386.508 592.27 377.008 579.119 377.008 565.136C377.008 551.153 386.323 538.157 403.298 528.297C420.273 518.436 443.212 512.874 467.518 512.874C491.824 512.874 514.68 518.344 531.913 528.297C549.145 538.249 558.645 551.4 558.645 565.393C558.645 579.387 549.392 592.362 532.365 602.222C515.338 612.083 492.441 617.645 468.135 617.645Z" fill="white" />
        <path id="Vector_167" d="M466.438 622.807C439.706 622.807 414.526 616.782 395.577 605.832C376.627 594.882 366.212 580.425 366.191 565.003C366.171 549.58 376.473 535.319 395.114 524.462C413.95 513.522 439.048 507.497 465.791 507.497C492.534 507.497 517.693 513.522 536.653 524.462C555.612 535.402 566.017 549.889 566.038 565.291C566.058 580.693 555.756 594.974 537.115 605.821C518.279 616.782 493.181 622.807 466.438 622.807Z" fill="white" />
        <path id="flashLigt" opacity="0.5" d="M696.096 208.5L565.449 564.545H366.616L246.844 208.5H696.096Z" fill="url(#paint3_radial_1_2)" />
        <path id="Vector_168" d="M466.592 621.915C439.995 621.915 414.943 615.963 396.09 605.145C377.237 594.327 366.874 580.046 366.854 564.81C366.833 549.574 377.083 535.486 395.629 524.76C414.37 513.952 439.341 508 465.948 508C492.555 508 517.587 513.952 536.45 524.76C555.314 535.567 565.666 549.879 565.687 565.095C565.707 580.31 555.457 594.419 536.911 605.135C518.17 615.963 493.2 621.915 466.592 621.915Z" fill="url(#paint4_linear_1_2)" />
        <path id="Vector_169" d="M459.827 563.137L440.635 543.559C437.385 540.243 432.977 538.381 428.381 538.381C423.785 538.381 419.377 540.243 416.127 543.559C412.877 546.874 411.051 551.371 411.051 556.059C411.051 560.748 412.877 565.245 416.127 568.56L435.319 588.138C438.569 591.453 442.977 593.316 447.573 593.316C452.169 593.316 456.577 591.453 459.827 588.138C463.077 584.823 464.903 580.326 464.903 575.637C464.903 570.949 463.077 566.452 459.827 563.137Z" fill="#5CC9F6" />
        <path id="Vector_170" d="M515.777 556.12C512.527 552.805 508.119 550.942 503.522 550.942C498.926 550.942 494.518 552.805 491.268 556.12C489.659 557.762 488.382 559.711 487.511 561.856C486.64 564.001 486.191 566.3 486.191 568.622C486.191 570.944 486.64 573.243 487.511 575.388C488.382 577.533 489.659 579.482 491.268 581.124C494.518 584.439 498.926 586.301 503.522 586.301C508.119 586.301 512.527 584.439 515.777 581.124C517.386 579.482 518.663 577.533 519.534 575.388C520.405 573.243 520.853 570.944 520.853 568.622C520.853 566.3 520.405 564.001 519.534 561.856C518.663 559.711 517.386 557.762 515.777 556.12Z" fill="#FA8807" />
        <path id="Vector_171" d="M442.401 556.069L435.235 563.378L435.205 563.345C432.404 566.129 428.763 567.865 424.873 568.271C420.983 568.677 417.073 567.729 413.777 565.581C414.453 566.658 415.241 567.657 416.127 568.56L423.861 576.45L423.939 576.421L435.409 588.122L466.83 556.069C465.226 554.432 463.322 553.134 461.226 552.248C459.13 551.362 456.884 550.906 454.615 550.906C452.347 550.906 450.1 551.362 448.005 552.248C445.909 553.134 444.005 554.432 442.401 556.069Z" fill="#00AEEB" />
        <path id="Vector_172" d="M503.448 543.715L503.432 543.699C501.849 542.03 499.954 540.702 497.858 539.793C495.763 538.884 493.511 538.413 491.234 538.407C488.958 538.402 486.703 538.862 484.604 539.761C482.504 540.659 480.603 541.978 479.012 543.64L447.607 575.676C444.55 578.792 440.462 580.631 436.145 580.831C431.828 581.032 427.593 579.58 424.271 576.76L435.411 588.123L435.423 588.112C438.669 591.423 443.072 593.284 447.662 593.284C452.253 593.284 456.655 591.423 459.901 588.112L490.487 556.911L490.538 556.926C490.775 556.653 491.017 556.384 491.274 556.122C493.41 553.941 496.068 552.367 498.985 551.559C501.901 550.75 504.975 550.735 507.899 551.513C507.106 548.563 505.571 545.876 503.448 543.715Z" fill="#0080CA" />
        <path id="Vector_173" d="M507.889 551.515C504.964 550.736 501.891 550.752 498.974 551.561C496.058 552.369 493.399 553.942 491.263 556.124C491.006 556.385 490.764 556.655 490.528 556.927L490.479 556.913L459.893 588.114C459.837 588.171 459.779 588.223 459.725 588.278L459.745 588.3C462.995 591.615 467.403 593.478 471.999 593.478C476.595 593.478 481.003 591.615 484.253 588.3L503.445 568.722C505.613 566.512 507.166 563.755 507.947 560.731C508.728 557.708 508.708 554.528 507.889 551.515Z" fill="#EE5913" />
        <path id="Vector_174" d="M456.271 549.36C457.796 549.36 459.032 548.099 459.032 546.543C459.032 544.987 457.796 543.726 456.271 543.726C454.746 543.726 453.51 544.987 453.51 546.543C453.51 548.099 454.746 549.36 456.271 549.36Z" fill="#5CC9F6" />
        <path id="Vector_175" d="M450.175 543.883C451.153 543.883 451.946 543.074 451.946 542.076C451.946 541.078 451.153 540.27 450.175 540.27C449.197 540.27 448.404 541.078 448.404 542.076C448.404 543.074 449.197 543.883 450.175 543.883Z" fill="#5CC9F6" />
        <path id="Vector_176" d="M454.084 539.077C455.062 539.077 455.855 538.268 455.855 537.27C455.855 536.273 455.062 535.464 454.084 535.464C453.105 535.464 452.312 536.273 452.312 537.27C452.312 538.268 453.105 539.077 454.084 539.077Z" fill="#5CC9F6" />
        <g id="dm">
            <path id="Vector_177" opacity="0.8" d="M344.137 330.953C337.774 327.28 333.854 320.491 333.854 313.143V240.765C333.854 233.418 337.774 226.629 344.137 222.956L406.856 186.754C413.217 183.082 421.054 183.082 427.416 186.754L490.134 222.956C496.498 226.629 500.418 233.418 500.418 240.765V313.143C500.418 320.491 496.498 327.28 490.134 330.953L427.416 367.155C421.054 370.827 413.217 370.827 406.856 367.155L344.137 330.953Z" fill="#092DA4" />
            <path id="Vector_178" d="M464.495 276.999C464.495 267.577 461.701 258.366 456.466 250.532C451.231 242.698 443.791 236.592 435.086 232.986C426.381 229.38 416.802 228.437 407.561 230.275C398.319 232.113 389.831 236.65 383.168 243.313C376.506 249.975 371.968 258.464 370.13 267.705C368.292 276.947 369.235 286.525 372.841 295.23C376.447 303.935 382.553 311.376 390.387 316.611C398.222 321.845 407.433 324.639 416.855 324.639C429.49 324.639 441.607 319.62 450.541 310.686C459.476 301.752 464.495 289.634 464.495 276.999Z" fill="black" />
            <path id="Vector_179" fill-rule="evenodd" clip-rule="evenodd" d="M368.854 276.82C368.854 267.327 371.669 258.046 376.943 250.153C382.217 242.259 389.714 236.107 398.485 232.474C407.256 228.841 416.907 227.89 426.218 229.742C435.529 231.594 444.082 236.166 450.795 242.879C457.508 249.592 462.079 258.145 463.931 267.456C465.783 276.767 464.833 286.418 461.2 295.189C457.567 303.96 451.414 311.456 443.521 316.731C435.627 322.005 426.347 324.82 416.854 324.82C404.123 324.82 391.914 319.763 382.912 310.761C373.911 301.759 368.854 289.55 368.854 276.82ZM416.854 232.732C408.134 232.732 399.61 235.318 392.36 240.162C385.109 245.007 379.458 251.892 376.122 259.948C372.785 268.004 371.912 276.869 373.613 285.421C375.314 293.973 379.513 301.829 385.679 307.995C391.844 314.161 399.7 318.36 408.252 320.061C416.805 321.762 425.669 320.889 433.725 317.552C441.781 314.215 448.667 308.564 453.511 301.314C458.356 294.064 460.941 285.54 460.941 276.82C460.935 265.129 456.288 253.919 448.021 245.652C439.755 237.385 428.544 232.738 416.854 232.732Z" fill="#FF631A" />
            <path id="Vector_180" d="M419.448 299.416C423.703 299.459 427.88 298.272 431.477 295.999C435.075 293.725 437.94 290.462 439.728 286.6C437.42 287.603 434.923 288.094 432.408 288.04C427.686 288.034 423.161 286.155 419.822 282.817C416.484 279.479 414.606 274.953 414.6 270.232C414.643 266.965 415.554 263.767 417.24 260.968C418.918 258.159 421.322 255.855 424.2 254.296C422.609 254.078 421.005 253.982 419.4 254.008C413.509 254.2 407.924 256.674 403.825 260.909C399.725 265.144 397.434 270.806 397.434 276.7C397.434 282.594 399.725 288.256 403.825 292.491C407.924 296.726 413.509 299.2 419.4 299.392L419.448 299.416Z" fill="#D7F1E1" />
            <path id="Vector_181" d="M438.285 262.72C438.759 262.72 439.223 262.58 439.618 262.316C440.013 262.052 440.32 261.677 440.502 261.239C440.684 260.8 440.731 260.318 440.639 259.852C440.546 259.387 440.317 258.959 439.982 258.623C439.646 258.288 439.219 258.059 438.753 257.967C438.287 257.874 437.805 257.921 437.366 258.103C436.928 258.285 436.553 258.592 436.289 258.987C436.026 259.382 435.885 259.846 435.885 260.32C435.885 260.957 436.138 261.567 436.588 262.017C437.038 262.468 437.648 262.72 438.285 262.72Z" fill="white" />
            <path id="Vector_182" d="M428.853 283.36C429.016 283.365 429.177 283.321 429.315 283.233C429.453 283.145 429.561 283.018 429.626 282.868C429.691 282.718 429.709 282.552 429.678 282.391C429.647 282.231 429.569 282.083 429.454 281.968C429.338 281.852 429.19 281.774 429.03 281.743C428.869 281.712 428.703 281.731 428.553 281.795C428.403 281.86 428.276 281.968 428.188 282.106C428.101 282.244 428.056 282.405 428.061 282.568C428.061 282.778 428.144 282.98 428.293 283.128C428.441 283.277 428.643 283.36 428.853 283.36Z" fill="white" />
            <path id="Vector_183" d="M424.054 267.4C424.264 267.4 424.465 267.317 424.614 267.168C424.762 267.02 424.846 266.818 424.846 266.608C424.846 266.398 424.762 266.197 424.614 266.048C424.465 265.9 424.264 265.816 424.054 265.816C423.844 265.816 423.642 265.9 423.494 266.048C423.345 266.197 423.262 266.398 423.262 266.608C423.262 266.818 423.345 267.02 423.494 267.168C423.642 267.317 423.844 267.4 424.054 267.4Z" fill="white" />
            <path id="Vector_184" d="M447.815 278.584C447.972 278.584 448.125 278.538 448.255 278.451C448.386 278.364 448.487 278.24 448.547 278.095C448.607 277.95 448.623 277.791 448.592 277.637C448.562 277.484 448.486 277.343 448.375 277.232C448.265 277.121 448.124 277.046 447.97 277.015C447.816 276.985 447.657 277 447.512 277.06C447.368 277.12 447.244 277.222 447.157 277.352C447.07 277.482 447.023 277.635 447.023 277.792C447.023 278.002 447.107 278.204 447.255 278.352C447.404 278.501 447.605 278.584 447.815 278.584Z" fill="white" />
        </g>
        <g id="evr">
            <path id="Vector_185" d="M541.753 335.873C539.277 334.444 537.752 331.802 537.752 328.944V299.071C537.752 296.212 539.277 293.571 541.753 292.142L567.631 277.204C570.106 275.776 573.155 275.776 575.63 277.204L601.508 292.142C603.984 293.571 605.509 296.212 605.509 299.071V328.944C605.509 331.802 603.984 334.444 601.508 335.873L575.63 350.811C573.155 352.239 570.106 352.239 567.631 350.811L541.753 335.873Z" fill="#092DA4" />
            <path id="Vector_186" fill-rule="evenodd" clip-rule="evenodd" d="M563.695 312.992C564.767 315.098 566.494 316.818 568.6 317.897L570.237 316.259C570.438 316.058 570.736 315.992 570.996 316.081C571.83 316.356 572.73 316.505 573.653 316.505C574.063 316.505 574.398 316.84 574.398 317.249V319.847C574.398 320.256 574.063 320.591 573.653 320.591C566.665 320.591 561.001 314.927 561.001 307.939C561.001 307.529 561.336 307.194 561.745 307.194H564.35C564.759 307.194 565.094 307.529 565.094 307.939C565.094 308.869 565.243 309.762 565.519 310.596C565.6 310.856 565.541 311.146 565.333 311.355L563.695 312.992ZM573.772 307.708L573.244 307.187L568.444 311.876V308.683H567.699V313.149H572.165V312.404H569.076L573.772 307.708Z" fill="white" />
            <path id="Vector_187" fill-rule="evenodd" clip-rule="evenodd" d="M580.476 321.159V317.156L587.661 322.288C588.084 322.59 588.64 322.631 589.102 322.393C589.564 322.155 589.855 321.679 589.855 321.159V307.283C589.855 306.763 589.564 306.287 589.102 306.049C588.64 305.811 588.084 305.851 587.661 306.153L580.476 311.285V307.283C580.476 304.833 578.295 303.12 575.962 303.12H558.768C556.435 303.12 554.254 304.833 554.254 307.283V321.159C554.254 323.609 556.435 325.322 558.768 325.322H575.962C578.295 325.322 580.476 323.609 580.476 321.159ZM568.6 317.897C566.493 316.818 564.767 315.098 563.695 312.992L565.332 311.355C565.541 311.146 565.6 310.856 565.518 310.596C565.243 309.762 565.094 308.869 565.094 307.939C565.094 307.529 564.759 307.194 564.35 307.194H561.745C561.336 307.194 561.001 307.529 561.001 307.939C561.001 314.927 566.665 320.591 573.653 320.591C574.062 320.591 574.397 320.256 574.397 319.847V317.249C574.397 316.84 574.062 316.505 573.653 316.505C572.73 316.505 571.83 316.356 570.996 316.081C570.736 315.991 570.438 316.058 570.237 316.259L568.6 317.897ZM573.244 307.187L573.772 307.708L569.076 312.404H572.165V313.148H567.699V308.683H568.443V311.876L573.244 307.187Z" fill="#407BFF" />
        </g>
        <g id="tls">
            <path id="Vector_339" opacity="0.5" d="M474.854 393.328C474.854 390.47 476.378 387.829 478.853 386.4L517.213 364.247C519.689 362.817 522.739 362.817 525.215 364.247L563.575 386.4C566.05 387.829 567.574 390.47 567.574 393.328V437.617C567.574 440.476 566.049 443.117 563.574 444.546L550.3 452.209C526.603 446.424 501.555 443.097 476.314 442.226C475.379 440.899 474.854 439.296 474.854 437.617V393.328Z" fill="#0E32A8" />
            <path id="Vector_340" d="M541.853 399.25C541.855 398.56 541.72 397.877 541.457 397.239C541.194 396.601 540.807 396.022 540.319 395.534C539.831 395.046 539.252 394.66 538.614 394.397C537.977 394.133 537.293 393.998 536.603 394H505.104C504.414 393.998 503.73 394.133 503.093 394.397C502.455 394.66 501.876 395.046 501.388 395.534C500.9 396.022 500.513 396.601 500.25 397.239C499.987 397.877 499.852 398.56 499.854 399.25V430.75C499.852 431.44 499.987 432.123 500.25 432.761C500.513 433.399 500.9 433.978 501.388 434.466C501.876 434.954 502.455 435.34 503.093 435.603C503.73 435.867 504.414 436.002 505.104 436H536.603C537.293 436.002 537.977 435.867 538.614 435.603C539.252 435.34 539.831 434.954 540.319 434.466C540.807 433.978 541.194 433.399 541.457 432.761C541.72 432.123 541.855 431.44 541.853 430.75V399.25Z" fill="url(#paint26_linear_1_2)" />
            <path id="Vector_341" d="M522.662 402.435H512.162C511.68 402.441 511.22 402.637 510.882 402.98C510.543 403.323 510.353 403.785 510.354 404.267V427.6C510.354 427.842 510.401 428.081 510.494 428.304C510.587 428.527 510.723 428.729 510.894 428.899C511.065 429.07 511.269 429.204 511.492 429.296C511.716 429.387 511.955 429.433 512.197 429.432H528.168C528.41 429.433 528.649 429.387 528.873 429.296C529.097 429.204 529.3 429.07 529.471 428.899C529.643 428.729 529.779 428.527 529.871 428.304C529.964 428.081 530.012 427.842 530.012 427.6V409.82L525.707 406.728L522.662 402.435Z" fill="#0F9D58" />
            <path id="Vector_342" d="M515.277 415.653V424.578H525.124V415.653H515.277ZM519.571 423.33H516.491V421.79H519.571V423.33ZM519.571 420.868H516.491V419.328H519.571V420.868ZM519.571 418.407H516.491V416.867H519.571V418.407ZM523.876 423.33H520.784V421.79H523.876V423.33ZM523.876 420.868H520.784V419.328H523.876V420.868ZM523.876 418.407H520.784V416.867H523.876V418.407Z" fill="#F1F1F1" />
            <path id="Vector_343" d="M523.188 409.295L530.036 416.167V409.867L523.188 409.295Z" fill="url(#paint27_linear_1_2)" />
            <path id="Vector_344" d="M522.637 402.447V408C522.635 408.242 522.681 408.481 522.773 408.705C522.864 408.928 522.999 409.132 523.169 409.303C523.339 409.474 523.542 409.61 523.765 409.703C523.988 409.796 524.227 409.843 524.468 409.843H530.01L522.637 402.447Z" fill="#87CEAC" />
            <path id="Vector_345" opacity="0.2" d="M512.197 402.435C511.955 402.434 511.716 402.48 511.492 402.571C511.269 402.663 511.065 402.797 510.894 402.967C510.723 403.138 510.587 403.34 510.494 403.563C510.401 403.786 510.354 404.025 510.354 404.267V404.43C510.354 404.189 510.401 403.949 510.494 403.726C510.587 403.503 510.723 403.301 510.894 403.131C511.065 402.961 511.269 402.826 511.492 402.734C511.716 402.643 511.955 402.597 512.197 402.598H522.697V402.435H512.197Z" fill="white" />
            <path id="Vector_346" opacity="0.2" d="M528.168 429.339H512.197C511.955 429.34 511.716 429.294 511.492 429.202C511.269 429.111 511.065 428.976 510.894 428.806C510.723 428.636 510.587 428.433 510.494 428.21C510.401 427.987 510.354 427.748 510.354 427.507V427.67C510.354 427.912 510.401 428.151 510.494 428.374C510.587 428.597 510.723 428.799 510.894 428.969C511.065 429.14 511.269 429.274 511.492 429.366C511.716 429.457 511.955 429.503 512.197 429.502H528.168C528.41 429.503 528.649 429.457 528.873 429.366C529.097 429.274 529.3 429.14 529.471 428.969C529.643 428.799 529.779 428.597 529.871 428.374C529.964 428.151 530.012 427.912 530.012 427.67V427.507C530.013 427.749 529.967 427.989 529.874 428.212C529.782 428.436 529.646 428.639 529.475 428.81C529.303 428.98 529.099 429.115 528.875 429.206C528.651 429.296 528.41 429.342 528.168 429.339Z" fill="#263238" />
            <path id="Vector_347" opacity="0.1" d="M524.494 409.82C524.01 409.82 523.546 409.629 523.203 409.288C522.86 408.947 522.665 408.484 522.662 408V408.128C522.661 408.37 522.707 408.609 522.798 408.833C522.89 409.056 523.024 409.26 523.194 409.431C523.365 409.602 523.567 409.738 523.79 409.831C524.013 409.924 524.252 409.972 524.494 409.972H530.047V409.808H524.494V409.82Z" fill="#263238" />
            <path id="Vector_348" d="M529.709 400.207C530.478 400.213 531.239 400.368 531.949 400.662C532.29 400.809 532.618 400.985 532.929 401.187C533.546 401.585 534.071 402.11 534.469 402.727C534.685 403.034 534.862 403.367 534.994 403.718C535.304 404.42 535.463 405.179 535.461 405.947C535.453 406.713 535.295 407.47 534.994 408.175C534.847 408.516 534.671 408.844 534.469 409.155C534.273 409.464 534.042 409.75 533.781 410.007C533.522 410.269 533.237 410.504 532.929 410.707C532.621 410.914 532.293 411.09 531.949 411.232C531.241 411.532 530.479 411.687 529.709 411.687C528.944 411.679 528.188 411.524 527.481 411.232C527.145 411.075 526.818 410.9 526.501 410.707C526.191 410.506 525.906 410.272 525.649 410.007C525.385 409.753 525.153 409.467 524.961 409.155C524.763 408.77 524.599 408.443 524.459 408.105C524.159 407.401 524.004 406.643 524.004 405.877C524.011 405.112 524.165 404.355 524.459 403.648C524.599 403.322 524.798 402.995 524.984 402.657C525.19 402.354 525.42 402.07 525.673 401.805C525.939 401.55 526.228 401.319 526.536 401.117C526.842 400.905 527.17 400.729 527.516 400.592C528.217 400.329 528.961 400.198 529.709 400.207ZM529.709 399.81C528.51 399.812 527.338 400.17 526.342 400.838C525.346 401.506 524.57 402.454 524.113 403.563C523.655 404.672 523.537 405.891 523.772 407.067C524.008 408.243 524.586 409.323 525.435 410.171C526.284 411.018 527.365 411.595 528.542 411.828C529.718 412.061 530.937 411.94 532.045 411.48C533.153 411.021 534.1 410.243 534.766 409.246C535.432 408.249 535.788 407.076 535.788 405.877C535.781 404.27 535.138 402.731 533.998 401.598C532.859 400.465 531.316 399.83 529.709 399.833V399.81Z" fill="white" />
            <path id="Vector_349" d="M524.657 405.877C524.654 406.83 524.92 407.764 525.426 408.571C525.932 409.379 526.657 410.026 527.515 410.439L525.089 403.847C524.791 404.481 524.643 405.176 524.657 405.877ZM533.127 405.644C533.12 405.152 532.97 404.674 532.695 404.267C532.428 403.931 532.258 403.527 532.205 403.1C532.198 402.982 532.214 402.864 532.253 402.753C532.292 402.641 532.353 402.539 532.432 402.452C532.512 402.365 532.608 402.294 532.716 402.245C532.823 402.196 532.939 402.17 533.057 402.167H533.127C532.582 401.687 531.941 401.329 531.246 401.117C530.551 400.905 529.819 400.844 529.099 400.938C528.379 401.032 527.687 401.278 527.07 401.661C526.453 402.044 525.924 402.555 525.52 403.159H525.847C526.372 403.159 527.189 403.089 527.189 403.089C527.238 403.1 527.281 403.127 527.312 403.167C527.343 403.206 527.36 403.254 527.36 403.304C527.36 403.354 527.343 403.403 527.312 403.442C527.281 403.481 527.238 403.509 527.189 403.52C527.189 403.52 526.92 403.52 526.594 403.52L528.437 409.004L529.545 405.667L528.764 403.474C528.589 403.484 528.414 403.484 528.239 403.474C527.97 403.474 528.005 403.042 528.239 403.042C528.239 403.042 529.055 403.112 529.58 403.112C530.105 403.112 530.922 403.042 530.922 403.042C530.971 403.053 531.014 403.081 531.045 403.12C531.076 403.159 531.093 403.208 531.093 403.258C531.093 403.308 531.076 403.356 531.045 403.395C531.014 403.435 530.971 403.462 530.922 403.474C530.724 403.486 530.525 403.486 530.327 403.474L532.17 408.922L532.695 407.277C532.913 406.763 533.058 406.221 533.127 405.667V405.644ZM529.779 406.344L528.274 410.73C529.286 411.016 530.361 410.983 531.354 410.637C531.354 410.637 531.354 410.637 531.354 410.567L529.779 406.344ZM534.142 403.45C534.161 403.625 534.161 403.801 534.142 403.975C534.132 404.598 533.997 405.213 533.745 405.784L532.205 410.24C533.345 409.58 534.182 408.5 534.537 407.232C534.892 405.963 534.738 404.607 534.107 403.45H534.142Z" fill="white" />
        </g>
        <g id="Group_32" opacity="0.1">
            <path id="Vector_350" opacity="0.5" d="M508.798 142.931C600.101 51.6276 748.133 51.6276 839.436 142.931C930.739 234.234 930.739 382.265 839.436 473.568" stroke="url(#paint28_linear_1_2)" stroke-width="14.7689" />
            <path id="Vector_351" opacity="0.5" d="M528.617 164.149C608.588 84.1788 738.246 84.1788 818.217 164.149C898.188 244.12 898.188 373.778 818.217 453.749" stroke="url(#paint29_linear_1_2)" stroke-width="14.7689" />
            <g id="Group_33" opacity="0.3">
                <path id="Vector_352" d="M901.949 515.25C1019.26 397.936 1019.26 207.731 901.949 90.4168C784.634 -26.8978 594.43 -26.8978 477.115 90.4167" stroke="url(#paint30_linear_1_2)" stroke-width="11.1754" />
                <path id="Vector_353" d="M874.686 489.785C977.439 387.031 977.439 220.434 874.686 117.681C771.932 14.9272 605.336 14.9272 502.582 117.681" stroke="url(#paint31_linear_1_2)" stroke-width="11.1754" />
            </g>
        </g>
    </g>
    <defs>
        <filter id="filter0_ii_1_2" x="117.788" y="506.574" width="36.4372" height="24.0877" filterUnits="userSpaceOnUse" color-interpolation-filters="sRGB">
            <feFlood flood-opacity="0" result="BackgroundImageFix" />
            <feBlend mode="normal" in="SourceGraphic" in2="BackgroundImageFix" result="shape" />
            <feColorMatrix in="SourceAlpha" type="matrix" values="0 0 0 0 0 0 0 0 0 0 0 0 0 0 0 0 0 0 127 0" result="hardAlpha" />
            <feOffset dy="3.05571" />
            <feGaussianBlur stdDeviation="9.79713" />
            <feComposite in2="hardAlpha" operator="arithmetic" k2="-1" k3="1" />
            <feColorMatrix type="matrix" values="0 0 0 0 0 0 0 0 0 0 0 0 0 0 0 0 0 0 0.1 0" />
            <feBlend mode="normal" in2="shape" result="effect1_innerShadow_1_2" />
            <feColorMatrix in="SourceAlpha" type="matrix" values="0 0 0 0 0 0 0 0 0 0 0 0 0 0 0 0 0 0 127 0" result="hardAlpha" />
            <feOffset dy="2.36181" />
            <feGaussianBlur stdDeviation="2.19311" />
            <feComposite in2="hardAlpha" operator="arithmetic" k2="-1" k3="1" />
            <feColorMatrix type="matrix" values="0 0 0 0 0 0 0 0 0 0 0 0 0 0 0 0 0 0 0.25 0" />
            <feBlend mode="normal" in2="effect1_innerShadow_1_2" result="effect2_innerShadow_1_2" />
        </filter>
        <filter id="filter1_iii_1_2" x="117.788" y="502.296" width="38.1242" height="27.6018" filterUnits="userSpaceOnUse" color-interpolation-filters="sRGB">
            <feFlood flood-opacity="0" result="BackgroundImageFix" />
            <feBlend mode="normal" in="SourceGraphic" in2="BackgroundImageFix" result="shape" />
            <feColorMatrix in="SourceAlpha" type="matrix" values="0 0 0 0 0 0 0 0 0 0 0 0 0 0 0 0 0 0 127 0" result="hardAlpha" />
            <feOffset dy="-4.27799" />
            <feGaussianBlur stdDeviation="5.22972" />
            <feComposite in2="hardAlpha" operator="arithmetic" k2="-1" k3="1" />
            <feColorMatrix type="matrix" values="0 0 0 0 0.717647 0 0 0 0 0.552941 0 0 0 0 0.921569 0 0 0 0.8 0" />
            <feBlend mode="normal" in2="shape" result="effect1_innerShadow_1_2" />
            <feColorMatrix in="SourceAlpha" type="matrix" values="0 0 0 0 0 0 0 0 0 0 0 0 0 0 0 0 0 0 127 0" result="hardAlpha" />
            <feOffset dy="-3.05571" />
            <feGaussianBlur stdDeviation="2.36181" />
            <feComposite in2="hardAlpha" operator="arithmetic" k2="-1" k3="1" />
            <feColorMatrix type="matrix" values="0 0 0 0 0.717647 0 0 0 0 0.552941 0 0 0 0 0.921569 0 0 0 0.5 0" />
            <feBlend mode="normal" in2="effect1_innerShadow_1_2" result="effect2_innerShadow_1_2" />
            <feColorMatrix in="SourceAlpha" type="matrix" values="0 0 0 0 0 0 0 0 0 0 0 0 0 0 0 0 0 0 127 0" result="hardAlpha" />
            <feOffset dx="1.68701" dy="2.29178" />
            <feGaussianBlur stdDeviation="5.1947" />
            <feComposite in2="hardAlpha" operator="arithmetic" k2="-1" k3="1" />
            <feColorMatrix type="matrix" values="0 0 0 0 0.953358 0 0 0 0 0.925781 0 0 0 0 0.9875 0 0 0 1 0" />
            <feBlend mode="normal" in2="effect2_innerShadow_1_2" result="effect3_innerShadow_1_2" />
        </filter>
        <filter id="filter2_f_1_2" x="114.713" y="499.948" width="41.6097" height="33.7194" filterUnits="userSpaceOnUse" color-interpolation-filters="sRGB">
            <feFlood flood-opacity="0" result="BackgroundImageFix" />
            <feBlend mode="normal" in="SourceGraphic" in2="BackgroundImageFix" result="shape" />
            <feGaussianBlur stdDeviation="5.73582" result="effect1_foregroundBlur_1_2" />
        </filter>
        <filter id="filter3_i_1_2" x="128.044" y="518.28" width="6.07324" height="4.12872" filterUnits="userSpaceOnUse" color-interpolation-filters="sRGB">
            <feFlood flood-opacity="0" result="BackgroundImageFix" />
            <feBlend mode="normal" in="SourceGraphic" in2="BackgroundImageFix" result="shape" />
            <feColorMatrix in="SourceAlpha" type="matrix" values="0 0 0 0 0 0 0 0 0 0 0 0 0 0 0 0 0 0 127 0" result="hardAlpha" />
            <feOffset dx="0.674802" dy="1.0122" />
            <feGaussianBlur stdDeviation="0.674802" />
            <feComposite in2="hardAlpha" operator="arithmetic" k2="-1" k3="1" />
            <feColorMatrix type="matrix" values="0 0 0 0 0.639216 0 0 0 0 0.305882 0 0 0 0 0.835294 0 0 0 0.25 0" />
            <feBlend mode="normal" in2="shape" result="effect1_innerShadow_1_2" />
        </filter>
        <filter id="filter4_i_1_2" x="133.054" y="515.388" width="6.07324" height="4.12872" filterUnits="userSpaceOnUse" color-interpolation-filters="sRGB">
            <feFlood flood-opacity="0" result="BackgroundImageFix" />
            <feBlend mode="normal" in="SourceGraphic" in2="BackgroundImageFix" result="shape" />
            <feColorMatrix in="SourceAlpha" type="matrix" values="0 0 0 0 0 0 0 0 0 0 0 0 0 0 0 0 0 0 127 0" result="hardAlpha" />
            <feOffset dx="0.674802" dy="1.0122" />
            <feGaussianBlur stdDeviation="0.674802" />
            <feComposite in2="hardAlpha" operator="arithmetic" k2="-1" k3="1" />
            <feColorMatrix type="matrix" values="0 0 0 0 0.639216 0 0 0 0 0.305882 0 0 0 0 0.835294 0 0 0 0.25 0" />
            <feBlend mode="normal" in2="shape" result="effect1_innerShadow_1_2" />
        </filter>
        <filter id="filter5_i_1_2" x="138.066" y="512.496" width="6.07324" height="4.12872" filterUnits="userSpaceOnUse" color-interpolation-filters="sRGB">
            <feFlood flood-opacity="0" result="BackgroundImageFix" />
            <feBlend mode="normal" in="SourceGraphic" in2="BackgroundImageFix" result="shape" />
            <feColorMatrix in="SourceAlpha" type="matrix" values="0 0 0 0 0 0 0 0 0 0 0 0 0 0 0 0 0 0 127 0" result="hardAlpha" />
            <feOffset dx="0.674802" dy="1.0122" />
            <feGaussianBlur stdDeviation="0.674802" />
            <feComposite in2="hardAlpha" operator="arithmetic" k2="-1" k3="1" />
            <feColorMatrix type="matrix" values="0 0 0 0 0.639216 0 0 0 0 0.305882 0 0 0 0 0.835294 0 0 0 0.25 0" />
            <feBlend mode="normal" in2="shape" result="effect1_innerShadow_1_2" />
        </filter>
        <filter id="filter6_d_1_2" x="786.012" y="501.337" width="37.1113" height="24.821" filterUnits="userSpaceOnUse" color-interpolation-filters="sRGB">
            <feFlood flood-opacity="0" result="BackgroundImageFix" />
            <feColorMatrix in="SourceAlpha" type="matrix" values="0 0 0 0 0 0 0 0 0 0 0 0 0 0 0 0 0 0 127 0" result="hardAlpha" />
            <feOffset />
            <feGaussianBlur stdDeviation="2.04318" />
            <feColorMatrix type="matrix" values="0 0 0 0 0.804203 0 0 0 0 0.769708 0 0 0 0 0.845833 0 0 0 0.85 0" />
            <feBlend mode="normal" in2="BackgroundImageFix" result="effect1_dropShadow_1_2" />
            <feBlend mode="normal" in="SourceGraphic" in2="effect1_dropShadow_1_2" result="shape" />
        </filter>
        <filter id="filter7_i_1_2" x="773.98" y="520.028" width="5.01846" height="2.897" filterUnits="userSpaceOnUse" color-interpolation-filters="sRGB">
            <feFlood flood-opacity="0" result="BackgroundImageFix" />
            <feBlend mode="normal" in="SourceGraphic" in2="BackgroundImageFix" result="shape" />
            <feColorMatrix in="SourceAlpha" type="matrix" values="0 0 0 0 0 0 0 0 0 0 0 0 0 0 0 0 0 0 127 0" result="hardAlpha" />
            <feOffset />
            <feGaussianBlur stdDeviation="4.08636" />
            <feComposite in2="hardAlpha" operator="arithmetic" k2="-1" k3="1" />
            <feColorMatrix type="matrix" values="0 0 0 0 0 0 0 0 0 0 0 0 0 0 0 0 0 0 0.13 0" />
            <feBlend mode="normal" in2="shape" result="effect1_innerShadow_1_2" />
        </filter>
        <filter id="filter8_i_1_2" x="784.474" y="526.088" width="5.01898" height="2.897" filterUnits="userSpaceOnUse" color-interpolation-filters="sRGB">
            <feFlood flood-opacity="0" result="BackgroundImageFix" />
            <feBlend mode="normal" in="SourceGraphic" in2="BackgroundImageFix" result="shape" />
            <feColorMatrix in="SourceAlpha" type="matrix" values="0 0 0 0 0 0 0 0 0 0 0 0 0 0 0 0 0 0 127 0" result="hardAlpha" />
            <feOffset />
            <feGaussianBlur stdDeviation="4.08636" />
            <feComposite in2="hardAlpha" operator="arithmetic" k2="-1" k3="1" />
            <feColorMatrix type="matrix" values="0 0 0 0 0 0 0 0 0 0 0 0 0 0 0 0 0 0 0.13 0" />
            <feBlend mode="normal" in2="shape" result="effect1_innerShadow_1_2" />
        </filter>
        <linearGradient id="paint0_linear_1_2" x1="688.133" y1="643.699" x2="239.068" y2="643.699" gradientUnits="userSpaceOnUse">
            <stop offset="0.07" stop-color="#E4E7FB" />
            <stop offset="0.69" stop-color="#F5F6FD" />
            <stop offset="1" stop-color="white" />
        </linearGradient>
        <linearGradient id="paint1_linear_1_2" x1="575.754" y1="705.699" x2="351.489" y2="438.425" gradientUnits="userSpaceOnUse">
            <stop stop-color="#F1F4FE" />
            <stop offset="0.58" stop-color="#F7F9FE" />
            <stop offset="1" stop-color="white" />
        </linearGradient>
        <linearGradient id="paint2_linear_1_2" x1="310.238" y1="568.951" x2="625.446" y2="568.951" gradientUnits="userSpaceOnUse">
            <stop stop-color="#5FEFC0" />
            <stop offset="0.54" stop-color="#4CD9ED" />
            <stop offset="1" stop-color="#437FEC" />
        </linearGradient>
        <radialGradient id="paint3_radial_1_2" cx="0" cy="0" r="1" gradientUnits="userSpaceOnUse" gradientTransform="translate(471 103.5) rotate(90) scale(426 475.441)">
            <stop stop-color="#98FFFF" stop-opacity="0" />
            <stop offset="0.505208" stop-color="#98FFFF" stop-opacity="0" />
            <stop offset="1" stop-color="#98FFFF" />
        </radialGradient>
        <linearGradient id="paint4_linear_1_2" x1="466.27" y1="564.957" x2="466.27" y2="621.915" gradientUnits="userSpaceOnUse">
            <stop stop-color="white" />
            <stop offset="1" stop-color="white" stop-opacity="0" />
        </linearGradient>
        <linearGradient id="paint5_linear_1_2" x1="215.491" y1="545.324" x2="56.71" y2="545.324" gradientUnits="userSpaceOnUse">
            <stop offset="0.07" stop-color="#E4E7FB" />
            <stop offset="0.69" stop-color="#F5F6FD" />
            <stop offset="1" stop-color="white" />
        </linearGradient>
        <linearGradient id="paint6_linear_1_2" x1="175.754" y1="567.244" x2="96.4609" y2="472.745" gradientUnits="userSpaceOnUse">
            <stop stop-color="#F1F4FE" />
            <stop offset="0.58" stop-color="#F7F9FE" />
            <stop offset="1" stop-color="white" />
        </linearGradient>
        <linearGradient id="paint7_linear_1_2" x1="81.8809" y1="517.244" x2="193.325" y2="517.244" gradientUnits="userSpaceOnUse">
            <stop stop-color="#F1F4FE" />
            <stop offset="0.58" stop-color="#F7F9FE" />
            <stop offset="1" stop-color="white" />
        </linearGradient>
        <linearGradient id="paint8_linear_1_2" x1="123.827" y1="493.532" x2="132.346" y2="537.803" gradientUnits="userSpaceOnUse">
            <stop stop-color="#BE80FE" />
            <stop offset="1" stop-color="#5501FE" />
        </linearGradient>
        <linearGradient id="paint9_linear_1_2" x1="97.2423" y1="486.317" x2="131.658" y2="563.09" gradientUnits="userSpaceOnUse">
            <stop stop-color="#F8ABFF" />
            <stop offset="1" stop-color="#B84BFF" />
        </linearGradient>
        <linearGradient id="paint10_linear_1_2" x1="137.904" y1="515.431" x2="160.717" y2="510.995" gradientUnits="userSpaceOnUse">
            <stop stop-color="#FDFAFE" />
            <stop offset="0.289047" stop-color="#FBF7FD" />
            <stop offset="0.608526" stop-color="#F7EFF9" />
            <stop offset="1" stop-color="#F5ECF7" />
        </linearGradient>
        <linearGradient id="paint11_linear_1_2" x1="137.304" y1="520.045" x2="130.862" y2="517.586" gradientUnits="userSpaceOnUse">
            <stop stop-color="#BD63EA" />
            <stop offset="1" stop-color="#EFC2FF" />
        </linearGradient>
        <linearGradient id="paint12_linear_1_2" x1="142.314" y1="517.153" x2="135.872" y2="514.694" gradientUnits="userSpaceOnUse">
            <stop stop-color="#BD63EA" />
            <stop offset="1" stop-color="#EFC2FF" />
        </linearGradient>
        <linearGradient id="paint13_linear_1_2" x1="147.326" y1="514.261" x2="140.885" y2="511.802" gradientUnits="userSpaceOnUse">
            <stop stop-color="#BD63EA" />
            <stop offset="1" stop-color="#EFC2FF" />
        </linearGradient>
        <linearGradient id="paint14_linear_1_2" x1="248.621" y1="759.4" x2="89.8507" y2="759.4" gradientUnits="userSpaceOnUse">
            <stop offset="0.07" stop-color="#E4E7FB" />
            <stop offset="0.69" stop-color="#F5F6FD" />
            <stop offset="1" stop-color="white" />
        </linearGradient>
        <linearGradient id="paint15_linear_1_2" x1="208.892" y1="781.321" x2="129.599" y2="686.821" gradientUnits="userSpaceOnUse">
            <stop stop-color="#F1F4FE" />
            <stop offset="0.58" stop-color="#F7F9FE" />
            <stop offset="1" stop-color="white" />
        </linearGradient>
        <linearGradient id="paint16_linear_1_2" x1="115.008" y1="731.31" x2="226.452" y2="731.31" gradientUnits="userSpaceOnUse">
            <stop stop-color="#F1F4FE" />
            <stop offset="0.58" stop-color="#F7F9FE" />
            <stop offset="1" stop-color="white" />
        </linearGradient>
        <linearGradient id="paint17_linear_1_2" x1="198.834" y1="747.008" x2="173.843" y2="703.72" gradientUnits="userSpaceOnUse">
            <stop stop-color="#20B038" />
            <stop offset="1" stop-color="#60D66A" />
        </linearGradient>
        <linearGradient id="paint18_linear_1_2" x1="874.655" y1="545.324" x2="715.885" y2="545.324" gradientUnits="userSpaceOnUse">
            <stop offset="0.07" stop-color="#E4E7FB" />
            <stop offset="0.69" stop-color="#F5F6FD" />
            <stop offset="1" stop-color="white" />
        </linearGradient>
        <linearGradient id="paint19_linear_1_2" x1="834.924" y1="567.244" x2="755.631" y2="472.745" gradientUnits="userSpaceOnUse">
            <stop stop-color="#F1F4FE" />
            <stop offset="0.58" stop-color="#F7F9FE" />
            <stop offset="1" stop-color="white" />
        </linearGradient>
        <linearGradient id="paint20_linear_1_2" x1="741.045" y1="517.244" x2="852.499" y2="517.244" gradientUnits="userSpaceOnUse">
            <stop stop-color="#F1F4FE" />
            <stop offset="0.58" stop-color="#F7F9FE" />
            <stop offset="1" stop-color="white" />
        </linearGradient>
        <linearGradient id="paint21_linear_1_2" x1="833.664" y1="495.107" x2="792.485" y2="567.774" gradientUnits="userSpaceOnUse">
            <stop stop-color="#B38BE2" />
            <stop offset="1" stop-color="#5C1BAB" />
        </linearGradient>
        <linearGradient id="paint22_linear_1_2" x1="810.371" y1="530.876" x2="802.349" y2="544.771" gradientUnits="userSpaceOnUse">
            <stop stop-color="#25CD52" />
            <stop offset="1" stop-color="#34A853" />
        </linearGradient>
        <linearGradient id="paint23_linear_1_2" x1="841.527" y1="759.4" x2="682.756" y2="759.4" gradientUnits="userSpaceOnUse">
            <stop offset="0.07" stop-color="#E4E7FB" />
            <stop offset="0.69" stop-color="#F5F6FD" />
            <stop offset="1" stop-color="white" />
        </linearGradient>
        <linearGradient id="paint24_linear_1_2" x1="801.799" y1="781.32" x2="722.506" y2="686.821" gradientUnits="userSpaceOnUse">
            <stop stop-color="#F1F4FE" />
            <stop offset="0.58" stop-color="#F7F9FE" />
            <stop offset="1" stop-color="white" />
        </linearGradient>
        <linearGradient id="paint25_linear_1_2" x1="707.854" y1="731.182" x2="819.297" y2="731.182" gradientUnits="userSpaceOnUse">
            <stop stop-color="#F1F4FE" />
            <stop offset="0.58" stop-color="#F7F9FE" />
            <stop offset="1" stop-color="white" />
        </linearGradient>
        <linearGradient id="paint26_linear_1_2" x1="531.797" y1="430.132" x2="502.922" y2="390.208" gradientUnits="userSpaceOnUse">
            <stop stop-color="#08CF68" />
            <stop offset="1" stop-color="#E2FFBC" />
        </linearGradient>
        <linearGradient id="paint27_linear_1_2" x1="526.617" y1="409.867" x2="526.617" y2="416.12" gradientUnits="userSpaceOnUse">
            <stop stop-color="#263238" stop-opacity="0.2" />
            <stop offset="1" stop-color="#263238" stop-opacity="0.02" />
        </linearGradient>
        <linearGradient id="paint28_linear_1_2" x1="922.095" y1="390.909" x2="591.458" y2="60.2712" gradientUnits="userSpaceOnUse">
            <stop stop-color="white" stop-opacity="0" />
            <stop offset="0.5" stop-color="white" />
            <stop offset="1" stop-color="white" stop-opacity="0" />
        </linearGradient>
        <linearGradient id="paint29_linear_1_2" x1="890.617" y1="381.349" x2="601.017" y2="91.7496" gradientUnits="userSpaceOnUse">
            <stop stop-color="white" stop-opacity="0" />
            <stop offset="0.5" stop-color="white" />
            <stop offset="1" stop-color="white" stop-opacity="0" />
        </linearGradient>
        <linearGradient id="paint30_linear_1_2" x1="583.324" y1="-15.7916" x2="1008.16" y2="409.042" gradientUnits="userSpaceOnUse">
            <stop stop-color="white" stop-opacity="0" />
            <stop offset="0.5" stop-color="white" />
            <stop offset="1" stop-color="white" stop-opacity="0" />
        </linearGradient>
        <linearGradient id="paint31_linear_1_2" x1="595.608" y1="24.6548" x2="967.712" y2="396.759" gradientUnits="userSpaceOnUse">
            <stop stop-color="white" stop-opacity="0" />
            <stop offset="0.5" stop-color="white" />
            <stop offset="1" stop-color="white" stop-opacity="0" />
        </linearGradient>
        <clipPath id="clip0_1_2">
            <rect width="915" height="808" fill="white" />
        </clipPath>
    </defs>
</svg>