<svg width="201.006714" height="34.627930" viewBox="0 0 201.007 34.6279" fill="none" xmlns="http://www.w3.org/2000/svg" xmlns:xlink="http://www.w3.org/1999/xlink">
	<desc>
			Created with Pixso.
	</desc>
	<defs/>
	<path id="Path 113" d="M66.25 7.56L69.35 7.56C69.7 7.56 70.05 7.61 70.39 7.7C70.72 7.8 71.03 7.94 71.32 8.13C71.6 8.32 71.86 8.54 72.08 8.79C72.3 9.05 72.48 9.33 72.61 9.64C73.36 11.46 74.11 13.25 74.87 15.04C75.63 16.82 76.39 18.61 77.15 20.43C77.28 20.72 77.37 21.03 77.42 21.35C77.45 21.64 77.48 21.89 77.49 22.11C77.53 21.68 77.61 21.26 77.74 20.85C77.9 20.35 78.09 19.86 78.3 19.39L82.41 9.62C82.53 9.33 82.7 9.07 82.91 8.84C83.15 8.59 83.41 8.37 83.7 8.18C84 7.98 84.32 7.83 84.66 7.71C84.98 7.6 85.33 7.54 85.67 7.54L88.78 7.54L86.58 12.77L89.03 18.59C89.28 19.2 89.53 19.79 89.78 20.38C90.01 20.9 90.14 21.46 90.18 22.03C90.2 21.93 90.21 21.81 90.23 21.67C90.25 21.54 90.29 21.37 90.34 21.16C90.4 20.91 90.48 20.67 90.57 20.43C90.67 20.15 90.81 19.8 90.99 19.39L95.11 9.62C95.22 9.34 95.39 9.07 95.6 8.84C95.83 8.59 96.09 8.37 96.38 8.18C96.68 7.98 97 7.83 97.34 7.72C97.66 7.6 98 7.54 98.35 7.54L101.46 7.54L92.93 27.82L87.45 27.82L84.5 20.33C84.39 20.07 84.3 19.79 84.23 19.5C84.15 19.22 84.11 18.93 84.11 18.64C84.11 18.35 84.15 18.07 84.25 17.81C84 18.5 83.55 19.68 82.89 21.34C82.22 23 81.34 25.16 80.23 27.82L74.75 27.82L66.25 7.56Z" fill="#414141" fill-opacity="1.000000" fill-rule="nonzero"/>
	<path id="Path 114" d="M102.81 7.56L106.93 7.56C107 7.56 107.09 7.73 107.22 8.09C107.38 8.58 107.5 9.09 107.57 9.6C107.7 9.21 107.95 8.86 108.28 8.61C108.66 8.31 109.09 8.06 109.54 7.88C110.01 7.68 110.51 7.52 111.01 7.42C111.46 7.33 111.91 7.27 112.37 7.27L112.45 7.27C113.82 7.26 115.19 7.54 116.44 8.1C117.65 8.63 118.75 9.4 119.67 10.35C121.56 12.32 122.62 14.96 122.61 17.7C122.61 20.44 121.54 23.07 119.64 25.04C118.71 25.98 117.6 26.74 116.39 27.26C115.12 27.81 113.75 28.09 112.37 28.08C111.57 28.08 110.78 27.95 110.02 27.7C109.22 27.44 108.49 27.01 107.88 26.44L107.88 34.35L102.8 34.35L102.81 7.56ZM112.36 12.3C111.47 12.3 110.6 12.51 109.82 12.91C109.05 13.3 108.38 13.86 107.88 14.56L107.88 20.77C108.39 21.47 109.07 22.05 109.85 22.44C110.62 22.84 111.48 23.04 112.36 23.05C113.07 23.05 113.77 22.91 114.42 22.62C115.04 22.35 115.59 21.95 116.06 21.46C116.53 20.97 116.9 20.39 117.15 19.76C117.68 18.41 117.68 16.92 117.15 15.58C116.9 14.95 116.53 14.37 116.06 13.87C115.59 13.39 115.04 13 114.42 12.73C113.77 12.44 113.07 12.3 112.36 12.3Z" fill="#414141" fill-opacity="1.000000" fill-rule="nonzero"/>
	<path id="Path 115" d="M129.74 7.56C129.81 7.71 129.89 7.85 129.97 7.99C130.11 8.25 130.17 8.54 130.17 8.83L130.17 9.99C130.29 9.64 130.48 9.33 130.74 9.08C131.02 8.81 131.34 8.57 131.68 8.38C132.05 8.18 132.43 8 132.83 7.87C133.22 7.73 133.63 7.62 134.03 7.52C134.4 7.44 134.77 7.37 135.14 7.33C135.44 7.29 135.73 7.27 136.03 7.27C137.4 7.26 138.76 7.54 140.01 8.09C141.21 8.62 142.3 9.38 143.2 10.33C144.1 11.29 144.81 12.42 145.3 13.65C146.31 16.25 146.31 19.14 145.3 21.74C144.81 22.97 144.1 24.09 143.2 25.05C142.11 26.19 140.77 27.06 139.28 27.57C137.79 28.09 136.2 28.23 134.64 28C134.13 27.92 133.63 27.79 133.16 27.6C132.62 27.39 132.11 27.11 131.64 26.78C131.09 26.39 130.59 25.92 130.17 25.4L130.17 34.62L127.02 34.62L127.02 7.56L129.74 7.56ZM136.03 25.02C136.99 25.03 137.95 24.83 138.83 24.45C139.66 24.08 140.4 23.55 141.02 22.88C141.64 22.21 142.13 21.41 142.45 20.55C143.13 18.7 143.13 16.67 142.45 14.82C142.13 13.96 141.64 13.17 141.02 12.49C140.4 11.82 139.66 11.29 138.83 10.92C137.95 10.54 136.99 10.34 136.03 10.36C134.94 10.35 133.86 10.58 132.85 11.01C131.85 11.44 130.93 12.06 130.16 12.84L130.16 22.03C130.51 22.5 130.91 22.93 131.36 23.3C131.8 23.67 132.29 23.98 132.8 24.24C133.31 24.49 133.84 24.68 134.39 24.81C134.92 24.95 135.47 25.02 136.02 25.02L136.03 25.02Z" fill="#4D4D4D" fill-opacity="1.000000" fill-rule="nonzero"/>
	<path id="Path 116" d="M148.74 17.69C148.73 16.3 149.01 14.92 149.56 13.65C150.49 11.43 152.17 9.6 154.29 8.48C156.42 7.36 158.87 7 161.23 7.48C163.59 7.96 165.71 9.23 167.23 11.1C168.76 12.96 169.59 15.29 169.59 17.7C169.59 20.1 168.76 22.44 167.23 24.3C165.71 26.16 163.59 27.44 161.23 27.92C158.87 28.39 156.42 28.04 154.29 26.91C152.17 25.79 150.49 23.96 149.56 21.75C149.01 20.46 148.73 19.08 148.74 17.69ZM151.82 17.69C151.82 18.67 152.01 19.65 152.4 20.55C152.77 21.43 153.31 22.22 153.98 22.89C154.64 23.55 155.43 24.08 156.3 24.45C157.21 24.83 158.18 25.02 159.16 25.02C160.14 25.02 161.11 24.83 162.02 24.45C163.59 23.8 164.88 22.62 165.67 21.12C166.46 19.62 166.71 17.89 166.37 16.23C166.04 14.57 165.13 13.07 163.82 12C162.5 10.93 160.85 10.35 159.16 10.36C158.17 10.35 157.2 10.54 156.3 10.93C155.43 11.29 154.64 11.82 153.98 12.49C153.31 13.16 152.77 13.95 152.4 14.82C152.02 15.73 151.82 16.7 151.83 17.69L151.82 17.69Z" fill="#4D4D4D" fill-opacity="1.000000" fill-rule="nonzero"/>
	<path id="Path 117" d="M172.39 17.69C172.38 16.3 172.66 14.92 173.21 13.65C174.14 11.43 175.81 9.6 177.94 8.48C180.07 7.36 182.52 7 184.88 7.48C187.24 7.96 189.36 9.23 190.88 11.1C192.41 12.96 193.24 15.29 193.24 17.7C193.24 20.1 192.41 22.44 190.88 24.3C189.36 26.16 187.24 27.44 184.88 27.92C182.52 28.39 180.07 28.04 177.94 26.91C175.81 25.79 174.14 23.96 173.21 21.75C172.66 20.46 172.38 19.08 172.39 17.69ZM175.47 17.69C175.47 18.67 175.66 19.65 176.05 20.55C176.42 21.42 176.96 22.22 177.63 22.89C178.29 23.55 179.08 24.08 179.95 24.45C180.85 24.83 181.82 25.03 182.81 25.02C184.01 25.02 185.2 24.72 186.26 24.15C187.32 23.59 188.23 22.76 188.9 21.76C189.57 20.76 189.98 19.61 190.1 18.41C190.22 17.21 190.04 16 189.58 14.88C189.12 13.77 188.39 12.78 187.46 12.02C186.53 11.25 185.42 10.73 184.24 10.49C183.06 10.26 181.84 10.31 180.68 10.66C179.53 11.01 178.48 11.64 177.63 12.49C176.96 13.16 176.42 13.95 176.05 14.82C175.67 15.73 175.47 16.7 175.48 17.69L175.47 17.69Z" fill="#4D4D4D" fill-opacity="1.000000" fill-rule="nonzero"/>
	<path id="Path 118" d="M201 0.17L201 27.82L197.86 27.82L197.86 0.17L201 0.17Z" fill="#4D4D4D" fill-opacity="1.000000" fill-rule="nonzero"/>
	<path id="Path 119" d="M26.99 15.01L16.37 4.39C14.57 2.59 12.13 1.58 9.58 1.58C7.04 1.58 4.6 2.59 2.8 4.39C1.01 6.18 0 8.62 0 11.17C0 13.71 1.01 16.15 2.8 17.95L13.42 28.57C15.22 30.37 17.66 31.38 20.2 31.38C22.75 31.38 25.19 30.37 26.99 28.57C28.78 26.77 29.79 24.33 29.79 21.79C29.79 19.24 28.78 16.8 26.99 15.01Z" fill="#5CC9F6" fill-opacity="1.000000" fill-rule="nonzero"/>
	<path id="Path 120" d="M57.95 11.2C56.15 9.4 53.71 8.39 51.16 8.39C48.62 8.39 46.18 9.4 44.38 11.2C43.49 12.09 42.79 13.15 42.3 14.31C41.82 15.48 41.57 16.72 41.57 17.98C41.57 19.24 41.82 20.49 42.3 21.65C42.79 22.82 43.49 23.87 44.38 24.76C46.18 26.56 48.62 27.57 51.16 27.57C53.71 27.57 56.15 26.56 57.95 24.76C58.84 23.87 59.54 22.82 60.02 21.65C60.51 20.49 60.75 19.24 60.75 17.98C60.75 16.72 60.51 15.48 60.02 14.31C59.54 13.15 58.84 12.09 57.95 11.2Z" fill="#FA8807" fill-opacity="1.000000" fill-rule="nonzero"/>
	<path id="Path 121" d="M17.34 11.17L13.38 15.14L13.36 15.12C11.81 16.63 9.8 17.57 7.64 17.79C5.49 18.01 3.33 17.5 1.5 16.33C1.88 16.92 2.31 17.46 2.8 17.95L7.08 22.23L7.13 22.21L13.47 28.56L30.86 11.17C29.97 10.28 28.92 9.58 27.76 9.1C26.6 8.62 25.36 8.37 24.1 8.37C22.85 8.37 21.6 8.62 20.44 9.1C19.28 9.58 18.23 10.28 17.34 11.17Z" fill="#00AEEB" fill-opacity="1.000000" fill-rule="nonzero"/>
	<path id="Path 122" d="M51.12 4.47L51.11 4.46C50.24 3.56 49.19 2.84 48.03 2.34C46.87 1.85 45.62 1.59 44.36 1.59C43.11 1.59 41.86 1.84 40.7 2.33C39.53 2.81 38.48 3.53 37.6 4.43L20.22 21.81C18.53 23.5 16.27 24.5 13.88 24.6C11.49 24.71 9.15 23.93 7.31 22.4L13.47 28.56L13.48 28.55C15.28 30.35 17.71 31.36 20.25 31.36C22.79 31.36 25.23 30.35 27.03 28.55L43.95 11.63L43.98 11.64C44.11 11.49 44.24 11.34 44.39 11.2C45.57 10.02 47.04 9.16 48.65 8.73C50.27 8.29 51.97 8.28 53.59 8.7C53.15 7.1 52.3 5.64 51.12 4.47Z" fill="#0080CA" fill-opacity="1.000000" fill-rule="nonzero"/>
	<path id="Path 123" d="M53.58 8.7C51.96 8.28 50.26 8.29 48.65 8.73C47.03 9.17 45.56 10.02 44.38 11.2C44.24 11.34 44.1 11.49 43.97 11.64L43.95 11.63L27.02 28.56C26.99 28.59 26.96 28.61 26.93 28.64L26.94 28.66C28.74 30.45 31.18 31.46 33.72 31.46C36.26 31.46 38.7 30.45 40.5 28.66L51.12 18.04C52.32 16.84 53.18 15.34 53.61 13.7C54.05 12.06 54.03 10.34 53.58 8.7Z" fill="#EE5913" fill-opacity="1.000000" fill-rule="nonzero"/>
	<path id="Ellipse 4" d="M26.55 6.01C26.55 6.85 25.86 7.53 25.02 7.53C24.17 7.53 23.49 6.85 23.49 6.01C23.49 5.16 24.17 4.48 25.02 4.48C25.86 4.48 26.55 5.16 26.55 6.01Z" fill="#5CC9F6" fill-opacity="1.000000" fill-rule="evenodd"/>
	<path id="Ellipse 5" d="M22.62 3.58C22.62 4.12 22.19 4.56 21.64 4.56C21.1 4.56 20.66 4.12 20.66 3.58C20.66 3.04 21.1 2.6 21.64 2.6C22.19 2.6 22.62 3.04 22.62 3.58Z" fill="#5CC9F6" fill-opacity="1.000000" fill-rule="evenodd"/>
	<path id="Ellipse 6" d="M24.79 0.97C24.79 1.52 24.35 1.95 23.81 1.95C23.27 1.95 22.83 1.52 22.83 0.97C22.83 0.43 23.27 0 23.81 0C24.35 0 24.79 0.43 24.79 0.97Z" fill="#5CC9F6" fill-opacity="1.000000" fill-rule="evenodd"/>
</svg>
