<svg width="60.759888" height="31.469727" viewBox="0 0 60.7599 31.4697" fill="none" xmlns="http://www.w3.org/2000/svg" xmlns:xlink="http://www.w3.org/1999/xlink">
	<desc>
			Created with Pixso.
	</desc>
	<defs/>
	<path id="Path 119" d="M26.99 15.01L16.37 4.39C14.57 2.59 12.13 1.58 9.58 1.58C7.04 1.58 4.6 2.59 2.8 4.39C1.01 6.18 0 8.62 0 11.17C0 13.71 1.01 16.15 2.8 17.95L13.42 28.57C15.22 30.37 17.66 31.38 20.2 31.38C22.75 31.38 25.19 30.37 26.99 28.57C28.78 26.77 29.79 24.33 29.79 21.79C29.79 19.24 28.78 16.8 26.99 15.01Z" fill="#5CC9F6" fill-opacity="1.000000" fill-rule="nonzero"/>
	<path id="Path 120" d="M57.95 11.2C56.15 9.4 53.71 8.39 51.16 8.39C48.62 8.39 46.18 9.4 44.38 11.2C43.49 12.09 42.79 13.15 42.3 14.31C41.82 15.48 41.57 16.72 41.57 17.98C41.57 19.24 41.82 20.49 42.3 21.65C42.79 22.82 43.49 23.87 44.38 24.76C46.18 26.56 48.62 27.57 51.16 27.57C53.71 27.57 56.15 26.56 57.95 24.76C58.84 23.87 59.54 22.82 60.02 21.65C60.51 20.49 60.75 19.24 60.75 17.98C60.75 16.72 60.51 15.48 60.02 14.31C59.54 13.15 58.84 12.09 57.95 11.2Z" fill="#FA8807" fill-opacity="1.000000" fill-rule="nonzero"/>
	<path id="Path 121" d="M17.34 11.17L13.38 15.14L13.36 15.12C11.81 16.63 9.8 17.57 7.64 17.79C5.49 18.01 3.33 17.5 1.5 16.33C1.88 16.92 2.31 17.46 2.8 17.95L7.08 22.23L7.13 22.21L13.47 28.56L30.86 11.17C29.97 10.28 28.92 9.58 27.76 9.1C26.6 8.62 25.36 8.37 24.1 8.37C22.85 8.37 21.6 8.62 20.44 9.1C19.28 9.58 18.23 10.28 17.34 11.17Z" fill="#00AEEB" fill-opacity="1.000000" fill-rule="nonzero"/>
	<path id="Path 122" d="M51.12 4.47L51.11 4.46C50.24 3.56 49.19 2.84 48.03 2.34C46.87 1.85 45.62 1.59 44.36 1.59C43.11 1.59 41.86 1.84 40.7 2.33C39.53 2.81 38.48 3.53 37.6 4.43L20.22 21.81C18.53 23.5 16.27 24.5 13.88 24.6C11.49 24.71 9.15 23.93 7.31 22.4L13.47 28.56L13.48 28.55C15.28 30.35 17.71 31.36 20.25 31.36C22.79 31.36 25.23 30.35 27.03 28.55L43.95 11.63L43.98 11.64C44.11 11.49 44.24 11.34 44.39 11.2C45.57 10.02 47.04 9.16 48.65 8.73C50.27 8.29 51.97 8.28 53.59 8.7C53.15 7.1 52.3 5.64 51.12 4.47Z" fill="#0080CA" fill-opacity="1.000000" fill-rule="nonzero"/>
	<path id="Path 123" d="M53.58 8.7C51.96 8.28 50.26 8.29 48.65 8.73C47.03 9.17 45.56 10.02 44.38 11.2C44.24 11.34 44.1 11.49 43.97 11.64L43.95 11.63L27.02 28.56C26.99 28.59 26.96 28.61 26.93 28.64L26.94 28.66C28.74 30.45 31.18 31.46 33.72 31.46C36.26 31.46 38.7 30.45 40.5 28.66L51.12 18.04C52.32 16.84 53.18 15.34 53.61 13.7C54.05 12.06 54.03 10.34 53.58 8.7Z" fill="#EE5913" fill-opacity="1.000000" fill-rule="nonzero"/>
	<path id="Ellipse 4" d="M26.55 6.01C26.55 6.85 25.86 7.53 25.02 7.53C24.17 7.53 23.49 6.85 23.49 6.01C23.49 5.16 24.17 4.48 25.02 4.48C25.86 4.48 26.55 5.16 26.55 6.01Z" fill="#5CC9F6" fill-opacity="1.000000" fill-rule="evenodd"/>
	<path id="Ellipse 5" d="M22.62 3.58C22.62 4.12 22.19 4.56 21.64 4.56C21.1 4.56 20.66 4.12 20.66 3.58C20.66 3.04 21.1 2.6 21.64 2.6C22.19 2.6 22.62 3.04 22.62 3.58Z" fill="#5CC9F6" fill-opacity="1.000000" fill-rule="evenodd"/>
	<path id="Ellipse 6" d="M24.79 0.97C24.79 1.52 24.35 1.95 23.81 1.95C23.27 1.95 22.83 1.52 22.83 0.97C22.83 0.43 23.27 0 23.81 0C24.35 0 24.79 0.43 24.79 0.97Z" fill="#5CC9F6" fill-opacity="1.000000" fill-rule="evenodd"/>
</svg>
