<svg width="26" height="13" viewBox="0 0 26 13" fill="none" xmlns="http://www.w3.org/2000/svg">
<path d="M14.4042 6.20086L18.7912 1.81381C19.5341 1.07091 20.5418 0.653564 21.5924 0.653564C22.643 0.653564 23.6506 1.07091 24.3936 1.81381C25.1365 2.55674 25.5538 3.56436 25.5538 4.615C25.5538 5.66564 25.1365 6.67325 24.3936 7.41619L20.0065 11.8032C19.2636 12.5461 18.256 12.9635 17.2053 12.9635C16.1547 12.9635 15.1471 12.5461 14.4042 11.8032C13.6613 11.0603 13.2439 10.0527 13.2439 9.00205C13.2439 7.9514 13.6613 6.94379 14.4042 6.20086Z" fill="#5CC9F6"/>
<path d="M1.61486 4.62877C2.35779 3.88587 3.36541 3.46851 4.41605 3.46851C5.46669 3.46851 6.4743 3.88587 7.21724 4.62877C7.58514 4.99664 7.87699 5.43337 8.0761 5.91403C8.27521 6.3947 8.37769 6.90988 8.37769 7.43016C8.37769 7.95043 8.27521 8.46561 8.0761 8.94628C7.87699 9.42694 7.58514 9.86367 7.21724 10.2315C6.4743 10.9744 5.46669 11.3918 4.41605 11.3918C3.36541 11.3918 2.35779 10.9744 1.61486 10.2315C1.24695 9.86367 0.955113 9.42694 0.756 8.94628C0.556888 8.46561 0.4544 7.95043 0.4544 7.43016C0.4544 6.90988 0.556888 6.3947 0.756 5.91403C0.955113 5.43337 1.24695 4.99664 1.61486 4.62877Z" fill="#FA8807"/>
<path d="M18.3873 4.61727L20.0252 6.25518L20.0323 6.24774C20.6725 6.87154 21.5048 7.26052 22.394 7.35149C23.2832 7.44246 24.1771 7.23006 24.9303 6.74882C24.7759 6.99005 24.5958 7.21389 24.3933 7.41639L22.6252 9.18442L22.6075 9.17781L19.9856 11.7997L12.8031 4.61727C13.1697 4.25052 13.605 3.95959 14.0841 3.7611C14.5632 3.56262 15.0767 3.46045 15.5952 3.46045C16.1138 3.46045 16.6273 3.56262 17.1063 3.7611C17.5854 3.95959 18.0207 4.25052 18.3873 4.61727Z" fill="#00AEEB"/>
<path d="M4.43289 1.84884L4.43661 1.84512C4.79852 1.47115 5.23175 1.17355 5.71067 0.969897C6.18958 0.766242 6.70446 0.660667 7.22488 0.659435C7.7453 0.658202 8.26069 0.761327 8.74056 0.962712C9.22044 1.1641 9.65506 1.45966 10.0187 1.83191L17.1975 9.01064C17.8962 9.70892 18.8307 10.1209 19.8175 10.1659C20.8044 10.2108 21.7724 9.88543 22.5317 9.25354L19.9854 11.7998L19.9825 11.7974C19.2405 12.5393 18.2342 12.9562 17.1849 12.9562C16.1355 12.9562 15.1292 12.5393 14.3872 11.7974L7.3956 4.80577L7.38403 4.80907C7.32992 4.74794 7.27456 4.68762 7.21591 4.62896C6.72764 4.14015 6.11994 3.78763 5.45321 3.60645C4.78649 3.42528 4.08395 3.42176 3.41544 3.59623C3.59689 2.93521 3.94758 2.33293 4.43289 1.84884Z" fill="#0080CA"/>
<path d="M3.41798 3.59706C4.08649 3.42258 4.78902 3.42611 5.45574 3.60728C6.12247 3.78846 6.73016 4.14097 7.21842 4.62979C7.27708 4.68845 7.33244 4.74876 7.38656 4.8099L7.39771 4.8066L14.3893 11.7982C14.4021 11.811 14.4153 11.8226 14.4277 11.835L14.4232 11.8399C13.6803 12.5828 12.6726 13.0002 11.622 13.0002C10.5714 13.0002 9.56374 12.5828 8.82081 11.8399L4.43376 7.45286C3.93825 6.95763 3.58311 6.33972 3.40464 5.66227C3.22617 4.98482 3.23078 4.27214 3.41798 3.59706Z" fill="#EE5913"/>
<path d="M15.2172 3.11373C14.8686 3.11373 14.586 2.83113 14.586 2.48252C14.586 2.13392 14.8686 1.85132 15.2172 1.85132C15.5658 1.85132 15.8484 2.13392 15.8484 2.48252C15.8484 2.83113 15.5658 3.11373 15.2172 3.11373Z" fill="#5CC9F6"/>
<path d="M16.6105 1.88681C16.387 1.88681 16.2057 1.70556 16.2057 1.48198C16.2057 1.2584 16.387 1.07715 16.6105 1.07715C16.8341 1.07715 17.0154 1.2584 17.0154 1.48198C17.0154 1.70556 16.8341 1.88681 16.6105 1.88681Z" fill="#5CC9F6"/>
<path d="M15.7165 0.809662C15.4929 0.809662 15.3117 0.628413 15.3117 0.404831C15.3117 0.181249 15.4929 0 15.7165 0C15.9401 0 16.1213 0.181249 16.1213 0.404831C16.1213 0.628413 15.9401 0.809662 15.7165 0.809662Z" fill="#5CC9F6"/>
</svg>
